<svg id="Layer_1" enable-background="new 0 0 512 512" height="512" viewBox="0 0 512 512" width="512" xmlns="http://www.w3.org/2000/svg"><path d="m480 48v416c0 26.47-21.53 48-48 48h-352c-26.47 0-48-21.53-48-48v-416c0-26.47 21.53-48 48-48h352c26.47 0 48 21.53 48 48z" fill="#aaa"/><path d="m400 512h-288c4.42-40.299.916-21.624 16.48-83.88 1.78-7.12 8.18-12.12 15.52-12.12h224c7.34 0 13.74 5 15.52 12.12 15.567 62.266 12.06 43.586 16.48 83.88z" fill="#999"/><path d="m336 480v32h-32v-32c0-8.84 7.16-16 16-16s16 7.16 16 16z" fill="#efd66c"/><path d="m272 480v32h-32v-32c0-8.84 7.16-16 16-16s16 7.16 16 16z" fill="#efd66c"/><path d="m208 480v32h-32v-32c0-8.84 7.16-16 16-16s16 7.16 16 16z" fill="#efd66c"/><path d="m480 48v128c0 123.71-100.29 224-224 224-123.706 0-224-100.279-224-224v-128c0-26.47 21.53-48 48-48h352c26.47 0 48 21.53 48 48z" fill="#b2b2b2"/><path d="m352 0v48c0 26.47-21.53 48-48 48h-96c-26.47 0-48-21.53-48-48v-48z" fill="#999"/><circle cx="432" cy="416" fill="#999" r="16"/><path d="m152 288h-24c-8.836 0-16-7.164-16-16s7.164-16 16-16h24c4.411 0 8-3.589 8-8s-3.589-8-8-8c-22.056 0-40-17.944-40-40s17.944-40 40-40h24c8.836 0 16 7.164 16 16s-7.164 16-16 16h-24c-4.411 0-8 3.589-8 8s3.589 8 8 8c8.087 0 14.308-.926 19.911 5.317 11.996 6.913 20.089 19.871 20.089 34.683 0 22.056-17.944 40-40 40z" fill="#ece2e2"/><path d="m256 288h-31c-8.836 0-16-7.164-16-16s7.164-16 16-16h31c4.411 0 8-3.589 8-8s-3.589-8-8-8c-8.568 0-8.578.031-9.723-.092-20.79-1.405-37.277-18.767-37.277-39.908 0-22.056 17.944-40 40-40h31c8.836 0 16 7.164 16 16s-7.164 16-16 16h-31c-4.411 0-8 3.589-8 8s3.589 8 8 8h7c22.056 0 40 17.944 40 40s-17.944 40-40 40z" fill="#ece2e2"/><path d="m352 288h-16c-8.836 0-16-7.164-16-16v-96c0-8.836 7.164-16 16-16h16c26.467 0 48 21.533 48 48v32c0 26.467-21.533 48-48 48zm0-32h.01zm0-64v64c8.822 0 16-7.178 16-16v-32c0-8.822-7.178-16-16-16z" fill="#ece2e2"/><g fill="#999"><circle cx="80" cy="416" r="16"/><circle cx="432" cy="48" r="16"/><circle cx="80" cy="48" r="16"/><path d="m320 368h-128c-8.836 0-16-7.164-16-16s7.164-16 16-16h128c8.836 0 16 7.164 16 16s-7.164 16-16 16z"/></g></svg>