<?xml version="1.0" encoding="UTF-8" standalone="no"?>
<!-- Created with Inkscape (http://www.inkscape.org/) -->

<svg
   xmlns:dc="http://purl.org/dc/elements/1.1/"
   xmlns:cc="http://creativecommons.org/ns#"
   xmlns:rdf="http://www.w3.org/1999/02/22-rdf-syntax-ns#"
   xmlns:svg="http://www.w3.org/2000/svg"
   xmlns="http://www.w3.org/2000/svg"
   xmlns:sodipodi="http://sodipodi.sourceforge.net/DTD/sodipodi-0.dtd"
   xmlns:inkscape="http://www.inkscape.org/namespaces/inkscape"
   width="300"
   height="120"
   viewBox="0 0 79.374998 31.750001"
   version="1.1"
   id="svg8"
   inkscape:version="0.92.4 (unknown)"
   sodipodi:docname="logo.svg">
  <defs
     id="defs2">
    <clipPath
       id="clipPath850"
       clipPathUnits="userSpaceOnUse">
      <path
         inkscape:connector-curvature="0"
         id="path848"
         d="M 0,1500 H 1650 V 0 H 0 Z" />
    </clipPath>
    <clipPath
       id="clipPath866"
       clipPathUnits="userSpaceOnUse">
      <path
         inkscape:connector-curvature="0"
         id="path864"
         d="M 0,1500 H 1650 V 0 H 0 Z" />
    </clipPath>
  </defs>
  <sodipodi:namedview
     id="base"
     pagecolor="#ffffff"
     bordercolor="#666666"
     borderopacity="1.0"
     inkscape:pageopacity="0.0"
     inkscape:pageshadow="2"
     inkscape:zoom="1.5564636"
     inkscape:cx="199.32481"
     inkscape:cy="57.638462"
     inkscape:document-units="mm"
     inkscape:current-layer="layer1"
     showgrid="false"
     units="px"
     inkscape:window-width="1920"
     inkscape:window-height="1016"
     inkscape:window-x="0"
     inkscape:window-y="27"
     inkscape:window-maximized="1" />
  <metadata
     id="metadata5">
    <rdf:RDF>
      <cc:Work
         rdf:about="">
        <dc:format>image/svg+xml</dc:format>
        <dc:type
           rdf:resource="http://purl.org/dc/dcmitype/StillImage" />
        <dc:title />
      </cc:Work>
    </rdf:RDF>
  </metadata>
  <g
     inkscape:label="Capa 1"
     inkscape:groupmode="layer"
     id="layer1"
     transform="translate(0,-265.24998)">
    <g
       id="g1734">
      <rect
         y="265.24997"
         x="3.3056642e-07"
         height="31.75"
         width="79.375"
         id="rect999"
         style="opacity:0;fill:#cccccc;fill-opacity:1;stroke:none;stroke-width:0.47084451;stroke-linecap:square;stroke-linejoin:miter;stroke-miterlimit:4;stroke-dasharray:none;stroke-dashoffset:0;stroke-opacity:1;paint-order:stroke fill markers" />
      <g
         transform="matrix(1.074701,0,0,1.074701,-92.565096,251.17134)"
         id="g1086">
        <g
           id="g1055"
           transform="translate(2.0398807,1.1792431)">
          <g
             transform="matrix(0.04706901,0,0,-0.04706901,83.6643,61.632432)"
             id="g844">
            <g
               clip-path="url(#clipPath850)"
               id="g846">
              <g
                 transform="translate(400.8872,492.4248)"
                 id="g852">
                <path
                   inkscape:connector-curvature="0"
                   id="path854"
                   style="fill:#0d2662;fill-opacity:1;fill-rule:nonzero;stroke:none"
                   d="m 0,0 h -296.424 c -34.669,0 -62.774,28.105 -62.774,62.774 V 499.782 H 62.774 V 62.774 C 62.774,28.105 34.669,0 0,0" />
              </g>
            </g>
          </g>
          <g
             aria-label="LOICA"
             style="font-variant:normal;font-weight:500;font-stretch:normal;font-size:3.17170787px;font-family:'Myriad Pro';-inkscape-font-specification:AkzidenzGroteskBQ-MdCndAlt;writing-mode:lr-tb;fill:#ffffff;fill-opacity:1;fill-rule:nonzero;stroke:none;stroke-width:0.04706902"
             id="text858">
            <path
               d="m 88.544059,16.367929 h 0.312834 v 2.048911 h 1.125894 v 0.263277 h -1.438728 z"
               style="stroke-width:0.04706902"
               id="path1451" />
            <path
               d="m 92.441768,16.580099 q -0.340711,0 -0.54204,0.253985 -0.199781,0.253984 -0.199781,0.692262 0,0.436729 0.199781,0.690714 0.201329,0.253984 0.54204,0.253984 0.34071,0 0.538942,-0.253984 0.199781,-0.253985 0.199781,-0.690714 0,-0.438278 -0.199781,-0.692262 -0.198232,-0.253985 -0.538942,-0.253985 z m 0,-0.253984 q 0.486287,0 0.77744,0.326772 0.291153,0.325224 0.291153,0.873459 0,0.546686 -0.291153,0.873459 -0.291153,0.325224 -0.77744,0.325224 -0.487836,0 -0.780538,-0.325224 -0.291153,-0.325224 -0.291153,-0.873459 0,-0.548235 0.291153,-0.873459 0.292702,-0.326772 0.780538,-0.326772 z"
               style="stroke-width:0.04706902"
               id="path1453" />
            <path
               d="m 95.274428,16.367929 h 0.312835 v 2.312188 h -0.312835 z"
               style="stroke-width:0.04706902"
               id="path1455" />
            <path
               d="m 99.349746,16.546028 v 0.32987 q -0.157966,-0.147125 -0.337614,-0.219913 -0.178098,-0.07279 -0.379428,-0.07279 -0.396463,0 -0.607084,0.243143 -0.210621,0.241595 -0.210621,0.700006 0,0.456862 0.210621,0.700006 0.210621,0.241595 0.607084,0.241595 0.20133,0 0.379428,-0.07279 0.179648,-0.07279 0.337614,-0.219914 v 0.326773 q -0.164161,0.111505 -0.348454,0.167258 -0.182745,0.05575 -0.387172,0.05575 -0.525004,0 -0.826998,-0.320578 -0.301993,-0.322127 -0.301993,-0.878105 0,-0.557527 0.301993,-0.878105 0.301994,-0.322126 0.826998,-0.322126 0.207524,0 0.390269,0.05575 0.184294,0.0542 0.345357,0.164161 z"
               style="stroke-width:0.04706902"
               id="path1457" />
            <path
               d="m 101.82924,16.676118 -0.42434,1.150673 h 0.85023 z m -0.17655,-0.308189 h 0.35465 l 0.8812,2.312188 h -0.32522 L 102.3527,18.08697 h -1.04227 l -0.21062,0.593147 h -0.32987 z"
               style="stroke-width:0.04706902"
               id="path1459" />
          </g>
          <g
             transform="matrix(0.04706901,0,0,-0.04706901,83.6643,61.632432)"
             id="g860">
            <g
               clip-path="url(#clipPath866)"
               id="g862">
              <g
                 transform="translate(41.1465,863.1104)"
                 id="g868">
                <path
                   inkscape:connector-curvature="0"
                   id="path870"
                   style="fill:none;stroke:#ffffff;stroke-width:1.12100005;stroke-linecap:butt;stroke-linejoin:miter;stroke-miterlimit:10;stroke-dasharray:none;stroke-opacity:1"
                   d="M 0,0 H 423.377" />
              </g>
              <g
                 transform="translate(207.4087,651.9404)"
                 id="g872">
                <path
                   inkscape:connector-curvature="0"
                   id="path874"
                   style="fill:none;stroke:#ffffff;stroke-width:0.90499997;stroke-linecap:butt;stroke-linejoin:miter;stroke-miterlimit:10;stroke-dasharray:none;stroke-opacity:1"
                   d="M 0,0 46.369,-44.756" />
              </g>
              <g
                 transform="translate(231.312,651.9404)"
                 id="g876">
                <path
                   inkscape:connector-curvature="0"
                   id="path878"
                   style="fill:none;stroke:#ffffff;stroke-width:0.90499997;stroke-linecap:butt;stroke-linejoin:miter;stroke-miterlimit:10;stroke-dasharray:none;stroke-opacity:1"
                   d="M 0,0 46.369,-44.756" />
              </g>
              <g
                 transform="translate(179.7295,607.1846)"
                 id="g880">
                <path
                   inkscape:connector-curvature="0"
                   id="path882"
                   style="fill:none;stroke:#ffffff;stroke-width:0.90499997;stroke-linecap:butt;stroke-linejoin:miter;stroke-miterlimit:10;stroke-dasharray:none;stroke-opacity:1"
                   d="M 0,0 H 146.693" />
              </g>
              <g
                 transform="translate(335.877,798.8662)"
                 id="g884">
                <path
                   inkscape:connector-curvature="0"
                   id="path886"
                   style="fill:#ffffff;fill-opacity:1;fill-rule:nonzero;stroke:none"
                   d="M 0,0 H 20.017 L 5.227,-14.578 Z" />
              </g>
              <g
                 transform="translate(133.958,642.5205)"
                 id="g888">
                <path
                   inkscape:connector-curvature="0"
                   id="path890"
                   style="fill:#d8342f;fill-opacity:1;fill-rule:nonzero;stroke:none"
                   d="M 0,0 -13.134,-13.012 V -39.614 L 39.006,12.26 Z" />
              </g>
              <g
                 transform="translate(341.104,794.7593)"
                 id="g892">
                <path
                   inkscape:connector-curvature="0"
                   id="path894"
                   style="fill:#d8342f;fill-opacity:1;fill-rule:nonzero;stroke:none"
                   d="m 0,0 c 0,0 4.822,-5.99 2.755,-29.308 -2.066,-23.318 7.38,-64.147 -33.649,-100.747 -41.028,-36.601 -136.071,-16.139 -136.071,-16.139 l 108.621,135.482 32.763,18.89 z" />
              </g>
              <g
                 transform="translate(341.104,794.7593)"
                 id="g896">
                <path
                   inkscape:connector-curvature="0"
                   id="path898"
                   style="fill:#ffffff;fill-opacity:1;fill-rule:nonzero;stroke:none"
                   d="m 0,0 c 0,0 -31.162,1.8 -51.584,-16.426 0,0 32.677,-2.772 28.252,-32.384 -4.423,-29.612 -28.457,-65.233 -56.353,-81.112 -27.895,-15.879 -72.099,-25.75 -127.461,-22.317 L -48.24,7.941 C -33.708,22.589 -9.069,18.533 0,0" />
              </g>
              <g
                 transform="translate(327.3599,793.0508)"
                 id="g900">
                <path
                   inkscape:connector-curvature="0"
                   id="path902"
                   style="fill:#1e3375;fill-opacity:1;fill-rule:nonzero;stroke:none"
                   d="m 0,0 c 0,-2.647 -2.146,-4.793 -4.794,-4.793 -2.647,0 -4.793,2.146 -4.793,4.793 0,2.647 2.146,4.794 4.793,4.794 C -2.146,4.794 0,2.647 0,0" />
              </g>
            </g>
          </g>
        </g>
        <g
           aria-label="Colegio Loica"
           style="font-variant:normal;font-weight:normal;font-stretch:normal;font-size:12.97741604px;font-family:'Savoye LET';-inkscape-font-specification:SavoyeLetPlain;writing-mode:lr-tb;fill:#0d2662;fill-opacity:1;fill-rule:nonzero;stroke:none;stroke-width:0.04706902"
           id="text906">
          <path
             d="m 114.44744,26.097349 -0.17742,-0.481584 q 0.5893,-0.171089 1.11524,-0.52594 0.52594,-0.354851 0.82376,-0.785742 0.30416,-0.430891 0.30416,-0.849108 0,-0.310495 -0.20277,-0.48792 -0.19644,-0.177426 -0.53228,-0.177426 -0.3992,0 -0.87445,0.209109 -0.47525,0.209108 -0.94416,0.58297 -0.46257,0.373861 -0.88713,0.899801 -0.46257,0.576633 -0.77307,1.203959 -0.31049,0.627327 -0.46891,1.279999 -0.15841,0.646337 -0.15841,1.343366 0,1.184949 0.54495,1.881979 0.54495,0.690692 1.48911,0.690692 0.60831,0 1.17861,-0.272475 0.57663,-0.272475 1.31802,-0.912475 l 0.10138,-0.08238 0.076,0.139406 q -0.75406,0.747722 -1.51445,1.121583 -0.7604,0.373862 -1.53347,0.373862 -0.69702,0 -1.24197,-0.329505 -0.53862,-0.335841 -0.83644,-0.931485 -0.29148,-0.601979 -0.29148,-1.406731 0,-0.58297 0.17108,-1.216633 0.17109,-0.633663 0.50693,-1.279999 0.34218,-0.652673 0.80476,-1.260989 0.48792,-0.646336 1.08356,-1.153267 0.59564,-0.513267 1.19129,-0.792078 0.60198,-0.278812 1.07722,-0.278812 0.4499,0 0.71604,0.259802 0.27248,0.253465 0.27248,0.690692 0,0.487921 -0.32317,1.020198 -0.32317,0.52594 -0.86178,0.944157 -0.53862,0.411881 -1.15327,0.58297 z"
             style="stroke-width:0.04706902"
             id="path1426" />
          <path
             d="m 116.92715,29.867643 q 0,-0.570296 0.30416,-1.134256 0.3105,-0.570297 0.79842,-0.925148 0.48792,-0.354851 0.99485,-0.354851 0.53228,0 0.85544,0.354851 0.32951,0.348515 0.32951,0.906138 0,0.608316 -0.30416,1.178613 -0.29782,0.570297 -0.79208,0.937821 -0.48792,0.361188 -0.98851,0.361188 -0.53862,0 -0.86812,-0.361188 -0.32951,-0.367524 -0.32951,-0.963168 z m 2.71208,-1.394058 q 0,-0.380198 -0.1901,-0.627326 -0.18376,-0.247129 -0.47524,-0.247129 -0.26614,0 -0.51327,0.171089 -0.24079,0.171089 -0.44357,0.500594 -0.22811,0.380198 -0.38019,0.887128 -0.14575,0.50693 -0.14575,0.899801 0,0.468911 0.18377,0.722376 0.18376,0.253465 0.52594,0.253465 0.55128,0 0.9695,-0.766732 0.21545,-0.392871 0.34218,-0.880791 0.12673,-0.487921 0.12673,-0.912475 z"
             style="stroke-width:0.04706902"
             id="path1428" />
          <path
             d="m 123.17065,22.155966 -1.66654,7.306133 -0.057,0.247129 q -0.0824,0.348514 -0.0824,0.589306 0,0.196436 0.0697,0.323168 0.076,0.120396 0.18376,0.120396 0.19644,0 0.62733,-0.46891 l 0.10138,0.08871 -0.0634,0.0697 q -0.36119,0.424555 -0.53228,0.576634 -0.17109,0.145742 -0.31683,0.145742 -0.1901,0 -0.33584,-0.209109 -0.13941,-0.215445 -0.13941,-0.48792 0,-0.190099 0.0824,-0.60198 l 1.46376,-7.375836 z"
             style="stroke-width:0.04706902"
             id="path1430" />
          <path
             d="m 125.31974,30.102099 0.11406,0.09505 q -0.39287,0.519604 -0.76673,0.754059 -0.37386,0.228119 -0.80476,0.228119 -0.51326,0 -0.82376,-0.342178 -0.31049,-0.342178 -0.31049,-0.906138 0,-0.570297 0.29782,-1.153267 0.30416,-0.589306 0.75406,-0.969504 0.45624,-0.386534 0.8998,-0.386534 0.2598,0 0.42455,0.152079 0.17109,0.152079 0.17109,0.392871 0,0.48792 -0.53227,0.975841 -0.53228,0.48792 -1.45109,0.830098 -0.006,0.05069 -0.006,0.114059 0,0.437228 0.24079,0.716039 0.2408,0.272475 0.62099,0.272475 0.29782,0 0.57664,-0.183762 0.27881,-0.190099 0.59564,-0.589306 z m -2.02772,-0.481584 q 0.68435,-0.304158 1.05188,-0.678019 0.24713,-0.253466 0.39921,-0.54495 0.15208,-0.291485 0.15208,-0.525941 0,-0.297821 -0.27248,-0.297821 -0.41188,0 -0.83643,0.652673 -0.41822,0.646336 -0.49426,1.394058 z"
             style="stroke-width:0.04706902"
             id="path1432" />
          <path
             d="m 129.47567,27.339329 -0.9695,3.859007 q -0.14575,0.620989 -0.25981,0.912474 -0.10772,0.291485 -0.26613,0.532277 -0.29783,0.456237 -0.72872,0.697029 -0.42455,0.247129 -0.91881,0.247129 -0.4499,0 -0.79208,-0.253466 l 0.32317,-0.418217 q 0.41188,0.392871 0.81743,0.392871 0.2598,0 0.52594,-0.164752 0.26614,-0.164753 0.39287,-0.405545 0.16475,-0.291485 0.34218,-1.058217 l 0.48792,-2.091087 q -0.84911,1.584157 -1.72357,1.584157 -0.35485,0 -0.57663,-0.266138 -0.21545,-0.272475 -0.21545,-0.690693 0,-0.595643 0.33585,-1.241979 0.33584,-0.646336 0.84277,-1.070891 0.51326,-0.43089 0.99485,-0.43089 0.4499,0 0.74772,0.335841 l 0.057,-0.221782 z m -0.7097,0.785741 q -0.24713,-0.475247 -0.65267,-0.475247 -0.42456,0 -0.83644,0.468911 -0.33584,0.392871 -0.57663,0.988514 -0.23446,0.589306 -0.23446,1.058217 0,0.316831 0.13307,0.500594 0.13941,0.177425 0.38654,0.177425 0.25346,0 0.55762,-0.278811 0.31049,-0.278812 0.61465,-0.785742 0.34852,-0.576634 0.53861,-1.368712 z"
             style="stroke-width:0.04706902"
             id="path1434" />
          <path
             d="m 131.38159,24.89339 q 0.16475,0 0.26614,0.101386 0.10139,0.101386 0.10139,0.266138 0,0.158416 -0.10773,0.266139 -0.10772,0.107722 -0.2598,0.107722 -0.14574,0 -0.2598,-0.114059 -0.11406,-0.114059 -0.11406,-0.259802 0,-0.152079 0.10772,-0.259802 0.10773,-0.107722 0.26614,-0.107722 z m -0.18376,2.483958 -0.55762,2.084751 q -0.13941,0.513267 -0.13941,0.823762 0,0.202772 0.0697,0.329505 0.0697,0.126732 0.18377,0.126732 0.19643,0 0.62732,-0.46891 l 0.10139,0.08871 -0.0634,0.0697 q -0.36119,0.424555 -0.53227,0.576634 -0.17109,0.145742 -0.31684,0.145742 -0.19643,0 -0.33584,-0.196435 -0.13307,-0.202773 -0.13307,-0.500594 0,-0.190099 0.076,-0.60198 l 0.39921,-2.21782 z"
             style="stroke-width:0.04706902"
             id="path1436" />
          <path
             d="m 131.86413,29.867643 q 0,-0.570296 0.30416,-1.134256 0.31049,-0.570297 0.79841,-0.925148 0.48792,-0.354851 0.99485,-0.354851 0.53228,0 0.85545,0.354851 0.3295,0.348515 0.3295,0.906138 0,0.608316 -0.30416,1.178613 -0.29782,0.570297 -0.79207,0.937821 -0.48793,0.361188 -0.98852,0.361188 -0.53861,0 -0.86812,-0.361188 -0.3295,-0.367524 -0.3295,-0.963168 z m 2.71208,-1.394058 q 0,-0.380198 -0.1901,-0.627326 -0.18377,-0.247129 -0.47525,-0.247129 -0.26614,0 -0.51327,0.171089 -0.24079,0.171089 -0.44356,0.500594 -0.22812,0.380198 -0.3802,0.887128 -0.14574,0.50693 -0.14574,0.899801 0,0.468911 0.18376,0.722376 0.18376,0.253465 0.52594,0.253465 0.55129,0 0.9695,-0.766732 0.21545,-0.392871 0.34218,-0.880791 0.12674,-0.487921 0.12674,-0.912475 z"
             style="stroke-width:0.04706902"
             id="path1438" />
          <path
             d="m 145.18276,30.596356 -0.27248,0.614653 q -0.18376,0.03168 -0.32317,0.03168 -0.27881,0 -0.75406,-0.08238 -0.34217,-0.06337 -0.68435,-0.152079 -0.33584,-0.09505 -0.87446,-0.266139 -0.43722,-0.139406 -0.86812,-0.259802 -0.39287,0.373862 -0.92514,0.58297 -0.53228,0.202772 -1.06456,0.202772 -0.62099,0 -1.00118,-0.221782 -0.37387,-0.228118 -0.37387,-0.595643 0,-0.392871 0.42456,-0.614653 0.42455,-0.221782 1.14693,-0.221782 0.82376,0 1.84396,0.297822 0.1901,-0.329505 0.30416,-0.690693 0.12039,-0.361188 0.25346,-1.001187 l 0.4499,-2.116434 q 0.19644,-0.918811 0.36119,-1.432078 0.17109,-0.513267 0.39287,-0.887128 0.20911,-0.354852 0.48158,-0.627327 0.27248,-0.272475 0.56396,-0.418217 0.29149,-0.145743 0.5703,-0.145743 0.30416,0 0.53228,0.145743 0.22812,0.139406 0.34218,0.411881 0.12039,0.266138 0.12039,0.620989 0,0.323168 -0.12039,0.817426 -0.1204,0.494257 -0.3105,0.912474 l -0.58931,0.08871 q 0.26614,-0.494257 0.44357,-1.064554 0.17742,-0.576633 0.17742,-0.975841 0,-0.373861 -0.15841,-0.576633 -0.15842,-0.202772 -0.46258,-0.202772 -0.65267,0 -1.0899,0.861782 -0.1394,0.278811 -0.22811,0.570296 -0.0887,0.285148 -0.23446,0.950495 l -0.56396,2.642374 q -0.18376,0.849108 -0.3802,1.349702 -0.19643,0.500593 -0.50059,0.880791 l 0.15841,0.05069 q 0.95684,0.316832 1.53347,0.456237 0.58297,0.13307 1.00752,0.13307 0.29782,0 0.67169,-0.0697 z m -4.07446,-0.209109 -0.15208,-0.04436 q -1.13425,-0.342178 -1.73623,-0.342178 -0.95683,0 -0.95683,0.500593 0,0.253465 0.3295,0.430891 0.32951,0.171089 0.8301,0.171089 0.48158,0 0.92515,-0.190099 0.44356,-0.190099 0.76039,-0.52594 z"
             style="stroke-width:0.04706902"
             id="path1440" />
          <path
             d="m 145.64616,29.867643 q 0,-0.570296 0.30415,-1.134256 0.3105,-0.570297 0.79842,-0.925148 0.48792,-0.354851 0.99485,-0.354851 0.53228,0 0.85545,0.354851 0.3295,0.348515 0.3295,0.906138 0,0.608316 -0.30416,1.178613 -0.29782,0.570297 -0.79208,0.937821 -0.48792,0.361188 -0.98851,0.361188 -0.53861,0 -0.86812,-0.361188 -0.3295,-0.367524 -0.3295,-0.963168 z m 2.71207,-1.394058 q 0,-0.380198 -0.1901,-0.627326 -0.18376,-0.247129 -0.47524,-0.247129 -0.26614,0 -0.51327,0.171089 -0.24079,0.171089 -0.44356,0.500594 -0.22812,0.380198 -0.3802,0.887128 -0.14574,0.50693 -0.14574,0.899801 0,0.468911 0.18376,0.722376 0.18376,0.253465 0.52594,0.253465 0.55129,0 0.9695,-0.766732 0.21545,-0.392871 0.34218,-0.880791 0.12673,-0.487921 0.12673,-0.912475 z"
             style="stroke-width:0.04706902"
             id="path1442" />
          <path
             d="m 150.96451,24.89339 q 0.16475,0 0.26614,0.101386 0.10138,0.101386 0.10138,0.266138 0,0.158416 -0.10772,0.266139 -0.10772,0.107722 -0.2598,0.107722 -0.14574,0 -0.2598,-0.114059 -0.11406,-0.114059 -0.11406,-0.259802 0,-0.152079 0.10772,-0.259802 0.10772,-0.107722 0.26614,-0.107722 z m -0.18376,2.483958 -0.55763,2.084751 q -0.1394,0.513267 -0.1394,0.823762 0,0.202772 0.0697,0.329505 0.0697,0.126732 0.18376,0.126732 0.19644,0 0.62733,-0.46891 l 0.10138,0.08871 -0.0634,0.0697 q -0.36119,0.424555 -0.53228,0.576634 -0.17109,0.145742 -0.31683,0.145742 -0.19644,0 -0.33584,-0.196435 -0.13307,-0.202773 -0.13307,-0.500594 0,-0.190099 0.076,-0.60198 l 0.39921,-2.21782 z"
             style="stroke-width:0.04706902"
             id="path1444" />
          <path
             d="m 154.10844,30.133782 q -0.38653,0.54495 -0.75405,0.798415 -0.36119,0.247129 -0.80476,0.247129 -0.48792,0 -0.79841,-0.342178 -0.30416,-0.342178 -0.30416,-0.887128 0,-0.570297 0.29782,-1.159603 0.29782,-0.589307 0.7604,-0.975841 0.46891,-0.386535 0.8998,-0.386535 0.29148,0 0.46891,0.164753 0.17742,0.158415 0.17742,0.43089 0,0.247129 -0.19009,0.475248 -0.18377,0.221782 -0.39921,0.221782 -0.095,0 -0.17109,-0.07604 0.41188,-0.183762 0.41188,-0.684356 0,-0.177425 -0.095,-0.272475 -0.0887,-0.101386 -0.24079,-0.101386 -0.23446,0 -0.47525,0.190099 -0.23445,0.190099 -0.44356,0.532277 -0.20911,0.335841 -0.32951,0.722375 -0.11406,0.380198 -0.11406,0.773069 0,0.468911 0.22179,0.760396 0.22178,0.291485 0.58297,0.291485 0.31049,0 0.60197,-0.196436 0.29149,-0.196435 0.60832,-0.60198 z"
             style="stroke-width:0.04706902"
             id="path1446" />
          <path
             d="m 158.18741,27.339329 -0.59565,2.319206 q -0.095,0.380197 -0.095,0.595643 0,0.190099 0.0824,0.329505 0.0824,0.139405 0.20277,0.139405 0.18377,0 0.60832,-0.4499 l 0.0887,0.08871 -0.0697,0.08238 q -0.33584,0.386534 -0.5196,0.54495 -0.17743,0.152079 -0.3105,0.152079 -0.20277,0 -0.35485,-0.209109 -0.14574,-0.215445 -0.14574,-0.494257 0,-0.202772 0.15208,-0.918811 l 0.0507,-0.240792 q -0.23446,0.54495 -0.62733,1.045544 -0.65901,0.836435 -1.26099,0.836435 -0.36118,0 -0.57029,-0.259802 -0.20911,-0.259802 -0.20911,-0.697029 0,-0.595643 0.33584,-1.248316 0.34218,-0.652673 0.84277,-1.07089 0.50693,-0.424555 0.98218,-0.424555 0.50059,0 0.74772,0.367525 l 0.0697,-0.240792 z m -0.72872,0.811088 q -0.076,-0.240792 -0.2598,-0.373861 -0.17742,-0.139406 -0.41188,-0.139406 -0.27881,0 -0.5893,0.259802 -0.3105,0.253465 -0.5703,0.709702 -0.20277,0.361188 -0.34218,0.798416 -0.13307,0.437227 -0.13307,0.722375 0,0.323168 0.1204,0.506931 0.12673,0.183762 0.35485,0.183762 0.29148,0 0.60832,-0.272475 0.31683,-0.272475 0.62732,-0.779406 0.1901,-0.291485 0.29782,-0.582969 0.10773,-0.291485 0.2408,-0.811089 z"
             style="stroke-width:0.04706902"
             id="path1448" />
        </g>
      </g>
    </g>
  </g>
</svg>
