<?xml version="1.0" encoding="UTF-8" standalone="no"?>
<!-- Created with Inkscape (http://www.inkscape.org/) -->

<svg
   xmlns:dc="http://purl.org/dc/elements/1.1/"
   xmlns:cc="http://creativecommons.org/ns#"
   xmlns:rdf="http://www.w3.org/1999/02/22-rdf-syntax-ns#"
   xmlns:svg="http://www.w3.org/2000/svg"
   xmlns="http://www.w3.org/2000/svg"
   xmlns:xlink="http://www.w3.org/1999/xlink"
   xmlns:sodipodi="http://sodipodi.sourceforge.net/DTD/sodipodi-0.dtd"
   xmlns:inkscape="http://www.inkscape.org/namespaces/inkscape"
   width="400"
   height="250"
   viewBox="0 0 105.83333 66.145833"
   version="1.1"
   id="svg7113"
   inkscape:version="0.92.4 (unknown)"
   sodipodi:docname="logo.svg">
  <defs
     id="defs7107">
    <linearGradient
       inkscape:collect="always"
       id="linearGradient7770">
      <stop
         style="stop-color:#ffcc00;stop-opacity:1;"
         offset="0"
         id="stop7766" />
      <stop
         style="stop-color:#ffbf00;stop-opacity:1"
         offset="1"
         id="stop7768" />
    </linearGradient>
    <linearGradient
       inkscape:collect="always"
       xlink:href="#linearGradient7770"
       id="linearGradient7772"
       x1="50.357315"
       y1="234.07983"
       x2="65.950218"
       y2="292.27335"
       gradientUnits="userSpaceOnUse"
       gradientTransform="matrix(2.2271407,0,0,1,-0.04939997,0)" />
    <clipPath
       clipPathUnits="userSpaceOnUse"
       id="clipPath1118">
      <rect
         style="opacity:0.78579999;fill:#ffcc00;fill-opacity:1;stroke:none;stroke-width:0.58580309;stroke-linecap:round;stroke-linejoin:round;stroke-miterlimit:4;stroke-dasharray:none;stroke-dashoffset:0;stroke-opacity:1;paint-order:stroke fill markers"
         id="rect1120"
         width="105.83334"
         height="59.266666"
         x="26.11635"
         y="351.00882" />
    </clipPath>
    <linearGradient
       inkscape:collect="always"
       xlink:href="#linearGradient7770"
       id="linearGradient2421"
       gradientUnits="userSpaceOnUse"
       x1="50.357315"
       y1="234.07983"
       x2="65.950218"
       y2="292.27335" />
  </defs>
  <sodipodi:namedview
     id="base"
     pagecolor="#ffffff"
     bordercolor="#666666"
     borderopacity="1.0"
     inkscape:pageopacity="0.0"
     inkscape:pageshadow="2"
     inkscape:zoom="1.5564636"
     inkscape:cx="374.146"
     inkscape:cy="100.05931"
     inkscape:document-units="mm"
     inkscape:current-layer="layer1"
     showgrid="false"
     units="px"
     inkscape:window-width="1920"
     inkscape:window-height="1016"
     inkscape:window-x="0"
     inkscape:window-y="27"
     inkscape:window-maximized="1" />
  <metadata
     id="metadata7110">
    <rdf:RDF>
      <cc:Work
         rdf:about="">
        <dc:format>image/svg+xml</dc:format>
        <dc:type
           rdf:resource="http://purl.org/dc/dcmitype/StillImage" />
        <dc:title />
      </cc:Work>
    </rdf:RDF>
  </metadata>
  <g
     inkscape:label="Capa 1"
     inkscape:groupmode="layer"
     id="layer1"
     transform="translate(0,-230.85417)">
    <rect
       style="opacity:0;fill:url(#linearGradient7772);fill-opacity:1;stroke:none;stroke-width:0.70691311;stroke-linecap:round;stroke-linejoin:round;stroke-miterlimit:4;stroke-dasharray:none;stroke-dashoffset:0;stroke-opacity:1;paint-order:stroke fill markers"
       id="rect7764"
       width="235.70575"
       height="66.145836"
       x="0.040256161"
       y="230.92517"
       inkscape:export-filename="/var/www/chamilo11/app/Resources/public/css/themes/playschool/images/header-logo.png"
       inkscape:export-xdpi="32.639999"
       inkscape:export-ydpi="32.639999" />
    <path
       style="fill:none;stroke:#fff9f9;stroke-width:0.70555556;stroke-linecap:butt;stroke-linejoin:miter;stroke-miterlimit:4;stroke-dasharray:none;stroke-opacity:1"
       d="m 108.47474,238.64059 v 50.00366"
       id="path1005"
       inkscape:connector-curvature="0"
       sodipodi:nodetypes="cc"
       inkscape:export-filename="/var/www/chamilo11/app/Resources/public/css/themes/playschool/images/header-logo.png"
       inkscape:export-xdpi="32.639999"
       inkscape:export-ydpi="32.639999" />
    <g
       inkscape:export-ydpi="101.04955"
       inkscape:export-xdpi="101.04955"
       inkscape:export-filename="/home/aragonc/Escritorio/banner_welcome.png"
       inkscape:label="Capa 1"
       id="g2419"
       transform="matrix(0.99921579,0,0,0.99921579,3.1564546e-5,0.18109351)">
      <rect
         ry="0"
         style="opacity:1;fill:url(#linearGradient2421);fill-opacity:1;stroke:none;stroke-width:0.4736878;stroke-linecap:round;stroke-linejoin:round;stroke-miterlimit:4;stroke-dasharray:none;stroke-dashoffset:0;stroke-opacity:1;paint-order:stroke fill markers"
         id="rect2331"
         width="105.83334"
         height="66.145836"
         x="0.040256161"
         y="230.92517" />
      <g
         transform="matrix(0.35277777,0,0,-0.35277777,56.03024,254.34745)"
         id="g2335">
        <path
           inkscape:connector-curvature="0"
           id="path2333"
           style="fill:#0081be;fill-opacity:1;fill-rule:evenodd;stroke:none"
           d="M 0,0 10.419,10.735 19.575,-0.631 24.943,11.366 40.887,8.683 27.153,-15.787 29.047,-31.1 11.998,-35.205 16.26,-17.208 Z" />
      </g>
      <g
         transform="matrix(0.35277777,0,0,-0.35277777,31.35873,251.34023)"
         id="g2339">
        <path
           inkscape:connector-curvature="0"
           id="path2337"
           style="fill:#0081be;fill-opacity:1;fill-rule:evenodd;stroke:none"
           d="m 0,0 16.103,0.947 -4.105,-28.731 14.839,4.104 -3.789,-18.628 -24.943,1.894 z" />
      </g>
      <g
         transform="matrix(0.35277777,0,0,-0.35277777,48.15994,258.46038)"
         id="g2343">
        <path
           inkscape:connector-curvature="0"
           id="path2341"
           style="fill:#0081be;fill-opacity:1;fill-rule:evenodd;stroke:none"
           d="M 0,0 3.992,9.8 6.17,-0.181 Z m 11.682,22.394 -12.314,-0.948 -17.049,-39.782 12.945,-5.052 4.42,14.524 7.578,-0.316 1.578,-13.26 14.208,2.525 z" />
      </g>
      <g
         transform="matrix(0.35277777,0,0,-0.35277777,87.05352,269.27298)"
         id="g2347">
        <path
           inkscape:connector-curvature="0"
           id="path2345"
           style="fill:#0081be;fill-opacity:1;fill-rule:evenodd;stroke:none"
           d="m 0,0 17.365,1.737 -5.841,-28.101 15.945,2.053 -4.421,-17.997 -26.205,0.316 z" />
      </g>
      <path
         sodipodi:nodetypes="csscssccscscsccssc"
         d="m 67.63236,275.28552 c 1.837973,1.37371 2.54755,3.46963 1.615017,6.12598 -0.332376,0.94678 -0.906057,1.9071 -1.726494,2.61726 -3.366643,2.9141 -7.759347,1.77059 -7.601656,-2.00484 -0.114507,-1.61984 1.654111,-3.15806 3.285772,-3.31364 0.565517,-0.0539 1.133954,0.35059 1.225198,0.89112 0.112556,0.66679 -0.538339,1.29469 -1.197328,1.89336 -0.106892,0.81209 0.347839,1.16522 1.05798,1.3088 1.559631,-0.64981 2.550116,-1.94245 2.338917,-3.84245 -0.178949,-1.60987 -2.469972,-2.48967 -4.315883,-2.19993 -3.985683,0.82198 -5.849101,3.91135 -4.232628,8.1587 0.822064,2.16 3.735736,4.03718 6.488289,3.50872 4.195619,-1.08585 6.320703,-3.95088 7.019876,-6.74399 0.886171,-3.54015 0.07787,-6.13698 -2.19367,-7.84725 -1.641122,-1.31903 -3.875778,-1.63345 -5.661584,-1.0862 -0.787733,0.25002 -1.931636,0.95379 -2.140763,1.59547 -0.1399,0.42926 0.177359,1.52915 1.561757,1.03407 1.966126,-0.70311 2.950378,-1.08402 4.4772,-0.0952 z"
         style="fill:#009951;fill-opacity:1;fill-rule:evenodd;stroke:none;stroke-width:0.35277778"
         id="path2349"
         inkscape:connector-curvature="0" />
      <path
         inkscape:connector-curvature="0"
         id="path2351"
         style="fill:#009951;fill-opacity:1;fill-rule:evenodd;stroke:none;stroke-width:0.35277778"
         d="m 74.841951,268.09969 c 2.096983,-0.9316 4.272235,-0.52575 6.133419,1.58653 0.66337,0.75287 1.220562,1.72285 1.438887,2.78576 0.895861,4.36161 -2.249464,7.63429 -5.465706,5.65072 -1.468978,-0.69213 -1.946019,-2.98704 -1.283927,-4.48643 0.229495,-0.51966 0.860275,-0.81774 1.376399,-0.63303 0.636683,0.22785 0.866148,1.10264 1.066158,1.97021 0.656127,0.49031 1.186508,0.26631 1.658982,-0.28295 0.195752,-1.67821 -0.447526,-3.17425 -2.208182,-3.91904 -1.491804,-0.63105 -3.379467,0.93725 -4.029288,2.68913 -1.231798,3.87865 0.551965,7.01469 5.04735,7.68138 2.286138,0.33905 5.348274,-1.28472 6.233166,-3.94419 1.104266,-4.19081 -0.355856,-7.4454 -2.450452,-9.42101 -2.654806,-2.50398 -5.315268,-3.06862 -7.917833,-1.92338 -1.953038,0.78662 -3.319952,2.58219 -3.715756,4.40755 -0.167073,0.80939 -0.112483,2.15134 0.345006,2.64752 0.306045,0.33193 1.420613,0.59297 1.665658,-0.85672 0.348016,-2.05886 0.497,-3.10368 2.106102,-3.95205 z"
         sodipodi:nodetypes="csscssccscscsccssc" />
      <g
         id="g2361">
        <g
           id="g2355"
           transform="matrix(0.35277777,0,0,-0.35277777,18.78774,251.50713)">
          <path
             sodipodi:nodetypes="cccsccccccc"
             d="m 0,0 -4.894,-2.684 -4.42,15.155 c 2.9225815,0.82978 5.415673,1.4321 7.4040866,0.80224 C 4.1792541,11.344404 5.5356382,3.4112081 0,0 M -32.205,25.101 -21.943,-55.727 9.8871004,-45.438094 3,-24.469 c 44.468,18.008 31.728,65.834 -12.314,59.357 -4.917204,-1.430321 -15.238727,-6.585707 -22.891,-9.787 z"
             style="fill:#e01c24;fill-opacity:1;fill-rule:evenodd;stroke:none"
             id="path2353"
             inkscape:connector-curvature="0" />
        </g>
        <g
           id="g2359"
           transform="matrix(0.35277777,0,0,-0.35277777,28.19974,263.64798)">
          <path
             sodipodi:nodetypes="cccccccccccc"
             d="m 0,0 c -14.722595,2.6059772 -31.232192,-1.9376793 -37.208409,-13.572524 -6.325488,-15.149508 2.35641,-21.770793 11.949409,-29.998476 5.262,-5.157 6.157,-7.841 3,-8.367 -2.749,-1.459 -10.247,-0.169 -20.996,3 l 8.051,-22.576 c 9.84,-1.21 19.26,0.527 28.258,5.21 8.365599,8.024389 9.5914975,16.042127 4.42,25.416 l -11.84,14.84 c -2.818516,5.026 -0.04907,9.930119 4.894,8.998 l 5.683,-2.683 z"
             style="fill:#0081be;fill-opacity:1;fill-rule:evenodd;stroke:none"
             id="path2357"
             inkscape:connector-curvature="0" />
        </g>
      </g>
      <g
         transform="matrix(0.35277777,0,0,-0.35277777,40.43637,274.95341)"
         id="g2365">
        <path
           inkscape:connector-curvature="0"
           id="path2363"
           style="fill:#e01c24;fill-opacity:1;fill-rule:evenodd;stroke:none"
           d="m 0,0 0.947,15.471 c -10.5408219,1.302194 -18.629113,0.855545 -25.255758,-6.7567227 -8.99648,-10.4412984 -8.740182,-25.1762713 2.522531,-34.2779833 5.001013,-4.190777 12.9298427,-3.413297 17.997227,-3.010294 l 4.105,17.207 c -7.8442009,-2.880689 -13.436308,-2.502802 -13.858144,6.4594363 C -12.572511,2.7637371 -4.6302236,4.3216609 0,0"
           sodipodi:nodetypes="cccccccc" />
      </g>
      <g
         transform="matrix(0.35277777,0,0,-0.35277777,42.92476,269.42214)"
         id="g2369">
        <path
           inkscape:connector-curvature="0"
           id="path2367"
           style="fill:#e01c24;fill-opacity:1;fill-rule:evenodd;stroke:none"
           d="m 0,0 14.366,-0.79 0.947,-17.522 8.051,1.104 L 23.838,-3 36.151,-3.947 v -40.572 l -15.786,0.474 1.578,13.734 -7.419,-0.473 -0.158,-14.84 -14.84,-0.157 z" />
      </g>
      <g
         transform="matrix(0.35277777,0,0,-0.35277777,72.03376,259.70389)"
         id="g2373">
        <path
           inkscape:connector-curvature="0"
           id="path2371"
           style="fill:#0081be;fill-opacity:1;fill-rule:evenodd;stroke:none"
           d="m 0,0 41.993,-15.077 c 0.736,-2.526 0.631,-5.262 -0.316,-8.209 l -42.466,17.839 -0.316,1.895 z" />
      </g>
      <g
         transform="matrix(0.35277777,0,0,-0.35277777,70.53015,249.16825)"
         id="g2377"
         style="fill:#ffffff">
        <path
           inkscape:connector-curvature="0"
           id="path2375"
           style="fill:#ffffff;fill-opacity:1;fill-rule:nonzero;stroke:none"
           d="M 0,0 C 8.906,10.195 18.562,15.642 28.731,17.839 20.417,13.037 12.787,6.696 6.157,-1.894 Z" />
      </g>
      <g
         transform="matrix(0.35277777,0,0,-0.35277777,87.2933,253.45655)"
         id="g2381"
         style="fill:#ffffff">
        <path
           inkscape:connector-curvature="0"
           id="path2379"
           style="fill:#ffffff;fill-opacity:1;fill-rule:nonzero;stroke:none"
           d="M 0,0 4.736,-3.157 C 11.051,7.782 18.786,15.951 27.627,20.997 17.103,17.892 7.999,10.683 0,0" />
      </g>
      <g
         transform="matrix(0.35277777,0,0,-0.35277777,74.2057,249.11244)"
         id="g2385">
        <path
           inkscape:connector-curvature="0"
           id="path2383"
           style="fill:#0081be;fill-opacity:1;fill-rule:evenodd;stroke:none"
           d="m 0,0 17.533,-6.607 19.25,-7.917 -2.368,-4.104 -17.12,8.245 -19.031,8.015 c 0,0 1.269,2.544 1.736,2.368" />
      </g>
      <g
         transform="matrix(0.35277777,0,0,-0.35277777,79.49652,240.81444)"
         id="g2389">
        <path
           inkscape:connector-curvature="0"
           id="path2387"
           style="fill:#0081be;fill-opacity:1;fill-rule:evenodd;stroke:none"
           d="m 0,0 c 17.036,0.5 33.323,-3.499 49.096,-10.577 l -2.999,-2.841 C 30.948,-7.327 15.043,-3.354 -2.21,-3.157 Z" />
      </g>
      <g
         transform="matrix(0.35277777,0,0,-0.35277777,72.53502,251.22875)"
         id="g2393">
        <path
           inkscape:connector-curvature="0"
           id="path2391"
           style="fill:#0081be;fill-opacity:1;fill-rule:evenodd;stroke:none"
           d="M 0,0 5.841,-1.105 V -24.153 L 0.79,-23.048 Z" />
      </g>
      <g
         transform="matrix(0.35277777,0,0,-0.35277777,86.95929,256.12958)"
         id="g2397">
        <path
           inkscape:connector-curvature="0"
           id="path2395"
           style="fill:#009951;fill-opacity:1;fill-rule:evenodd;stroke:none"
           d="M 0,0 2.052,2.684 4.42,-20.997 0,-23.68 Z" />
      </g>
      <g
         transform="matrix(0.35277777,0,0,-0.35277777,96.81657,247.10757)"
         id="g2401">
        <path
           inkscape:connector-curvature="0"
           id="path2399"
           style="fill:#e01c24;fill-opacity:1;fill-rule:evenodd;stroke:none"
           d="m 0,0 2.526,1.895 2.21,-32.521 -30.942,-25.89 -0.631,6.473 27.784,20.207 z" />
      </g>
      <g
         transform="matrix(0.35277777,0,0,-0.35277777,96.81657,247.10757)"
         id="g2405">
        <path
           inkscape:connector-curvature="0"
           id="path2403"
           style="fill:#009951;fill-opacity:1;fill-rule:nonzero;stroke:none"
           d="m 0,0 2.526,1.895 2.21,-32.521 -30.942,-25.89 -0.631,6.473 27.784,20.207 z" />
      </g>
      <g
         transform="matrix(0.35277777,0,0,-0.35277777,90.57921,254.06907)"
         id="g2409">
        <path
           inkscape:connector-curvature="0"
           id="path2407"
           style="fill:#e01c24;fill-opacity:1;fill-rule:evenodd;stroke:none"
           d="m 0,0 c -1.533,-2.315 -2.467,-4.973 -2.526,-8.13 -0.014,-3.303 1.091,-5.354 4.657,-4.657 1.218,0.666 2.226,1.964 3.024,3.892 1.07,1.861 2.351,3.51 3.843,4.949 1.447,0.999 2.789,0.946 4.026,-0.158 l 0.552,-3.237 0.395,0.079 1.973,3.947 C 16.339,-1.21 14.839,0.053 12.708,0.474 9.024,0.737 6.394,-1.736 3.552,-6.946 1.973,-8.551 0.71,-8.367 -0.237,-6.394 -0.494,-4.374 -0.375,-2.229 0,0" />
      </g>
      <g
         transform="matrix(0.35277777,0,0,-0.35277777,76.512333,257.30583)"
         id="g2413">
        <path
           inkscape:connector-curvature="0"
           id="path2411"
           style="fill:#ffffff;fill-opacity:1;fill-rule:evenodd;stroke:none"
           d="M 0,0 C -1.299,2.897 2.433,8.175 8.054,8.672 15.818,8.999 21.085,1.774 20.823,-4.376 20.351,-15.457 1.721,-15.132 4.028,-2.615 5.145,2.648 12.46,3.52 12.79,-3.01 12.553,-4.483 11.895,-4.746 10.816,-3.799 l -0.71,1.736 C 9.109,-1.029 8.073,-1.34 7.343,-2.299 6.181,-5.739 7.332,-7.804 10.066,-8.93 c 3.595,-0.864 6.036,0.366 6.788,4.658 C 17.143,2.282 14.396,5.196 9.948,6.068 5.84,6.393 3.742,5.255 3.002,0.74 3.126,-1.069 1.298,-2.897 0,0" />
      </g>
      <g
         transform="matrix(0.35277777,0,0,-0.35277777,86.71019,247.0633)"
         id="g2417">
        <path
           inkscape:connector-curvature="0"
           id="path2415"
           style="fill:#e01c24;fill-opacity:1;fill-rule:nonzero;stroke:none"
           d="m 0,0 -4.368,2.974 4.481,1.24 z M 7.968,-5.493 3.39,-1.704 3.784,10.057 -8.372,4.453 c -2.841,1.5 -5.262,2.262 -7.261,2.289 0.447,-1.316 1.315,-2.526 2.605,-3.631 l -7.026,-3.316 v -4.42 l 11.051,4.736 6.551,-4.657 -0.078,-8.288 4.499,-1.42 c 0.237,2.328 0.342,4.722 0.157,7.261 l 3,-1.973 z" />
      </g>
    </g>
  </g>
</svg>
