<?xml version="1.0" encoding="UTF-8" standalone="no"?>
<!-- Created with Inkscape (http://www.inkscape.org/) -->

<svg
   xmlns:dc="http://purl.org/dc/elements/1.1/"
   xmlns:cc="http://creativecommons.org/ns#"
   xmlns:rdf="http://www.w3.org/1999/02/22-rdf-syntax-ns#"
   xmlns:svg="http://www.w3.org/2000/svg"
   xmlns="http://www.w3.org/2000/svg"
   xmlns:sodipodi="http://sodipodi.sourceforge.net/DTD/sodipodi-0.dtd"
   xmlns:inkscape="http://www.inkscape.org/namespaces/inkscape"
   width="305"
   height="325"
   viewBox="0 0 80.697914 85.989586"
   version="1.1"
   id="svg2581"
   inkscape:version="0.92.4 (unknown)"
   sodipodi:docname="work.svg">
  <defs
     id="defs2575" />
  <sodipodi:namedview
     id="base"
     pagecolor="#ffffff"
     bordercolor="#666666"
     borderopacity="1.0"
     inkscape:pageopacity="0.0"
     inkscape:pageshadow="2"
     inkscape:zoom="2.5212776"
     inkscape:cx="243.22884"
     inkscape:cy="174.91211"
     inkscape:document-units="mm"
     inkscape:current-layer="layer1"
     showgrid="false"
     units="px"
     inkscape:window-width="1920"
     inkscape:window-height="1016"
     inkscape:window-x="0"
     inkscape:window-y="27"
     inkscape:window-maximized="1" />
  <metadata
     id="metadata2578">
    <rdf:RDF>
      <cc:Work
         rdf:about="">
        <dc:format>image/svg+xml</dc:format>
        <dc:type
           rdf:resource="http://purl.org/dc/dcmitype/StillImage" />
        <dc:title />
      </cc:Work>
    </rdf:RDF>
  </metadata>
  <g
     inkscape:label="Capa 1"
     inkscape:groupmode="layer"
     id="layer1"
     transform="translate(0,-211.0104)">
    <path
       inkscape:connector-curvature="0"
       id="path24"
       style="fill:#d35f5f;fill-opacity:1;fill-rule:nonzero;stroke:none;stroke-width:0.0593189"
       d="M 61.350439,270.32458 H 38.463421 c -1.06774,0 -1.933198,-0.86546 -1.933198,-1.93261 v 0 c 0,-1.06714 0.865458,-1.93261 1.933198,-1.93261 h 22.887018 c 1.06774,0 1.93261,0.86547 1.93261,1.93261 v 0 c 0,1.06715 -0.86487,1.93261 -1.93261,1.93261" />
    <path
       inkscape:connector-curvature="0"
       id="path26"
       style="fill:#d35f5f;fill-opacity:1;fill-rule:nonzero;stroke:none;stroke-width:0.0593189"
       d="m 64.85678,292.76789 v 1.94684 H 45.151628 v -1.94684 H 64.85678" />
    <path
       inkscape:connector-curvature="0"
       id="path28"
       style="fill:#d35f5f;fill-opacity:1;fill-rule:nonzero;stroke:none;stroke-width:0.0593189"
       d="m 46.981617,294.32382 c 0.168467,1.0102 -0.515475,1.96583 -1.526263,2.1331 -1.010806,0.16782 -1.965836,-0.51547 -2.133715,-1.52626 -0.167812,-1.0108 0.51608,-1.96583 1.526868,-2.13371 1.010805,-0.16731 1.965836,0.51608 2.13311,1.52687" />
    <path
       inkscape:connector-curvature="0"
       id="path30"
       style="fill:#d35f5f;fill-opacity:1;fill-rule:nonzero;stroke:none;stroke-width:0.0593189"
       d="m 55.884804,293.56454 h -1.946852 v -24.50938 h 1.946852 v 24.50938" />
    <path
       inkscape:connector-curvature="0"
       id="path32"
       style="fill:#d35f5f;fill-opacity:1;fill-rule:nonzero;stroke:none;stroke-width:0.0593189"
       d="m 66.686769,294.32382 c 0.167812,1.0102 -0.515475,1.96583 -1.52628,2.1331 -1.010788,0.16782 -1.966424,-0.51547 -2.133698,-1.52626 -0.167307,-1.0108 0.515475,-1.96583 1.52628,-2.13371 1.011377,-0.16731 1.966424,0.51608 2.133698,1.52687" />
    <path
       inkscape:connector-curvature="0"
       id="path34"
       style="fill:#d35f5f;fill-opacity:1;fill-rule:nonzero;stroke:none;stroke-width:0.0593189"
       d="m 67.347574,270.32458 h -21.62352 c -1.474658,0 -2.535286,-1.44323 -2.117673,-2.8829 l 10.326224,-35.59549 c 0.277024,-0.95503 1.138934,-1.61051 2.11769,-1.61051 h 21.624108 c 1.474675,0 2.535286,1.44323 2.11769,2.8829 l -10.32624,35.59549 c -0.277613,0.95504 -1.138918,1.61051 -2.118279,1.61051" />
    <path
       inkscape:connector-curvature="0"
       id="path36"
       style="fill:#916f6f;fill-opacity:1;fill-rule:nonzero;stroke:none;stroke-width:0.0593189"
       d="M 64.372732,270.32458 H 45.537797 c -1.475853,0 -2.535875,-1.44323 -2.118279,-2.8829 l 10.326829,-35.59549 c 0.276436,-0.95503 1.138917,-1.61051 2.11769,-1.61051 h 18.834936 c 1.474658,0 2.534697,1.44323 2.117085,2.8829 l -10.326224,35.59549 c -0.277024,0.95504 -1.138934,1.61051 -2.117102,1.61051" />
    <path
       inkscape:connector-curvature="0"
       id="path38"
       style="fill:#d35f5f;fill-opacity:1;fill-rule:nonzero;stroke:none;stroke-width:0.0593189"
       d="M 67.342244,270.32458 H 44.455226 c -1.06774,0 -1.933198,-0.86546 -1.933198,-1.93261 v 0 c 0,-1.06714 0.865458,-1.93261 1.933198,-1.93261 h 22.887018 c 1.067151,0 1.932609,0.86547 1.932609,1.93261 v 0 c 0,1.06715 -0.865458,1.93261 -1.932609,1.93261" />
    <path
       inkscape:connector-curvature="0"
       id="path40"
       style="fill:#ffffff;fill-opacity:1;fill-rule:nonzero;stroke:#4f4757;stroke-width:0.17795669;stroke-miterlimit:4;stroke-dasharray:none;stroke-opacity:1"
       d="m 48.822283,240.11347 -4.683226,13.4903 1.098595,2.64503 6.318046,-1.19468 1.78965,-14.44297 -4.523065,-0.49768" />
    <path
       inkscape:connector-curvature="0"
       id="path42"
       style="fill:#ffffff;fill-opacity:1;fill-rule:nonzero;stroke:none;stroke-width:0.0593189"
       d="m 51.652399,233.53975 c 0,0 -3.703881,2.09811 -4.520693,9.01825 l 4.887273,2.91552 -0.36658,-11.93377" />
    <path
       inkscape:connector-curvature="0"
       id="path44"
       style="fill:#f9f9f9;fill-opacity:1;fill-rule:nonzero;stroke:none;stroke-width:0.0593189"
       d="m 57.987058,230.87692 -6.334659,2.66283 -4.986346,22.2173 16.689955,6.57846 8.893098,-25.33985 c 0,0 -1.447384,-5.29065 -9.798306,-6.63422 l -4.463742,0.51548" />
    <path
       style="fill:#ffffff;fill-opacity:1;fill-rule:nonzero;stroke:#4f4757;stroke-width:0.17795669;stroke-miterlimit:4;stroke-dasharray:none;stroke-opacity:1"
       d="m 68.113958,234.13284 c -0.565924,0.0163 -1.139964,0.16417 -1.680511,0.46314 -1.586778,0.87851 -2.303094,2.77849 -1.690936,4.48628 l 2.995198,13.8542 -12.737628,-0.99405 c -1.184368,-1.22377 -3.487181,-1.8646 -5.093663,-1.49977 -2.426141,0.55107 -3.945549,2.97642 -3.264566,4.80343 0.681569,1.82703 4.13469,1.90879 5.961722,1.2278 0.466665,-0.17409 0.93486,-0.37402 1.365088,-0.6039 l 15.514726,5.24572 c 2.755949,0.9319 5.57234,-1.24378 5.366507,-4.14566 -0.01175,-0.29244 -0.187954,-2.04898 -0.263283,-2.33133 l -2.75016,-17.60885 c -0.402623,-1.80893 -2.024729,-2.94595 -3.722494,-2.89701 z"
       id="path46"
       inkscape:connector-curvature="0" />
    <path
       inkscape:connector-curvature="0"
       id="path50"
       style="fill:#ffffff;fill-opacity:1;fill-rule:nonzero;stroke:none;stroke-width:0.0593189"
       d="m 69.968884,234.06472 c 0,0 2.385214,1.03155 3.401349,7.18174 l -8.386518,2.57622 c 0,0 -5.482249,-6.13891 0.377274,-10.242 l 4.607895,0.48404" />
    <path
       inkscape:connector-curvature="0"
       id="path54"
       style="fill:#ff2a2a;fill-opacity:1;fill-rule:nonzero;stroke:none;stroke-width:0.0593189"
       d="m 56.778141,257.73237 -13.2898,-1.70839 0.192782,-1.49899 13.289799,1.7078 c 0.41346,0.0534 0.706491,0.43184 0.653104,0.84588 v 0 c -0.0528,0.41405 -0.431838,0.70708 -0.845885,0.6537" />
    <path
       inkscape:connector-curvature="0"
       id="path56"
       style="fill:#c83737;fill-opacity:1;fill-rule:nonzero;stroke:none;stroke-width:0.0593189"
       d="m 45.237652,256.2488 -17.610599,-2.26302 c -1.014353,-0.1305 -1.817529,-0.92062 -1.963465,-1.9332 L 23.815221,239.2741 c -0.163776,-1.12943 0.794869,-2.10404 1.927868,-1.9587 l 16.173891,2.07912 c 0.677419,0.0872 1.210095,0.61929 1.29849,1.29612 l 2.022182,15.55816" />
    <path
       inkscape:connector-curvature="0"
       id="path58"
       style="fill:#ffffff;fill-opacity:1;fill-rule:nonzero;stroke:none;stroke-width:0.0593189"
       d="m 35.464854,247.48087 c -0.11804,0.92063 -0.959772,1.57018 -1.879811,1.45213 -0.920039,-0.11804 -1.570167,-0.95978 -1.452127,-1.88041 0.11804,-0.92003 0.960378,-1.57017 1.880417,-1.45153 0.920022,0.11804 1.570166,0.95978 1.451521,1.87981" />
    <path
       inkscape:connector-curvature="0"
       id="path64"
       style="fill:#ffffff;fill-opacity:1;fill-rule:nonzero;stroke:#504a5f;stroke-width:0.17795669;stroke-miterlimit:4;stroke-dasharray:none;stroke-opacity:1"
       d="m 29.874049,290.72316 1.528062,-6.86735 -5.673265,-0.77114 -1.537545,6.91421 5.682748,0.72428" />
    <path
       inkscape:connector-curvature="0"
       id="path66"
       style="fill:#000080;fill-opacity:1;fill-rule:nonzero;stroke:none;stroke-width:0.0593189"
       d="m 63.356008,262.33551 c 0,0 -0.443104,3.79048 -7.258262,4.31189 H 39.718024 l -7.730438,21.55411 -8.121349,-1.30619 8.121349,-31.6496 18.612493,2.06192 12.755929,5.02787" />
    <path
       inkscape:connector-curvature="0"
       id="path76"
       style="fill:#ffffff;fill-opacity:1;fill-rule:nonzero;stroke:#504a5f;stroke-width:0.17795669;stroke-miterlimit:4;stroke-dasharray:none;stroke-opacity:1"
       d="m 15.567525,281.15503 4.266807,-5.42175 -4.470871,-3.57634 -4.298251,5.45735 4.502315,3.54074" />
    <path
       inkscape:connector-curvature="0"
       id="path78"
       style="fill:#000080;fill-opacity:1;fill-rule:nonzero;stroke:none;stroke-width:0.0593189"
       d="M 46.666053,255.75705 34.042977,251.9814 c -0.531482,-0.15897 -1.053498,-0.34702 -1.571949,-0.54336 -1.095619,-0.41346 -3.833187,-1.00249 -5.970449,2.26835 -2.73518,4.18673 -13.680122,19.95963 -13.680122,19.95963 l 6.669828,4.92346 14.574652,-18.57096 c 1.22849,-1.67991 3.183648,-2.67588 5.265742,-2.68122 l 11.2694,-0.0297 -3.934026,-1.55059" />
    <path
       inkscape:connector-curvature="0"
       id="path86"
       style="fill:#000000;fill-opacity:1;fill-rule:nonzero;stroke:none;stroke-width:0.0593189"
       d="m 62.900445,225.50441 c 0.231926,-0.42295 6.219577,-8.24118 0.549877,-10.69994 0,0 -0.457934,-3.67362 -4.572298,-3.27559 -4.114953,0.39803 -2.98789,1.60457 -5.608595,1.00723 -2.620117,-0.59734 -5.087185,0.75394 -4.888468,2.944 0.199306,2.19005 1.868546,3.11899 4.888468,2.58808 3.020511,-0.5309 5.409289,-0.13287 5.409289,-0.13287 l 2.521649,0.73496 1.700078,6.83413" />
    <path
       inkscape:connector-curvature="0"
       id="path88"
       style="fill:#ffffff;fill-opacity:1;fill-rule:nonzero;stroke:#000000;stroke-width:0.17795669;stroke-miterlimit:4;stroke-dasharray:none;stroke-opacity:1"
       d="m 63.405242,231.50214 -0.319717,-8.85038 -6.135957,2.16396 0.486418,7.09572 c 0.113836,1.64847 1.025031,2.9262 2.673504,2.8129 l 0.51608,-0.0332 c 1.648473,-0.11271 2.89297,-1.54111 2.779672,-3.18899" />
    <path
       inkscape:connector-curvature="0"
       id="path90"
       style="fill:#000000;fill-opacity:1;fill-rule:nonzero;stroke:none;stroke-width:0.0593189"
       d="m 62.565292,223.8767 c 0,0 1.154336,7.39291 -5.141177,7.81764 l -0.285314,-3.49982 5.426491,-4.31782" />
    <path
       inkscape:connector-curvature="0"
       id="path92"
       style="fill:#ffffff;fill-opacity:1;fill-rule:nonzero;stroke:#000000;stroke-width:0.17795669;stroke-miterlimit:4;stroke-dasharray:none;stroke-opacity:1"
       d="m 50.030023,222.98514 c 0.04977,1.06062 0.950289,1.87981 2.010311,1.82998 1.060039,-0.0498 1.879828,-0.94969 1.829989,-2.01031 -0.04977,-1.06003 -0.950289,-1.87923 -2.010311,-1.8294 -1.060039,0.0492 -1.879811,0.9491 -1.829989,2.00973" />
    <path
       style="fill:#ffffff;fill-opacity:1;fill-rule:nonzero;stroke:#000000;stroke-width:0.17795669;stroke-miterlimit:4;stroke-dasharray:none;stroke-opacity:1"
       d="m 61.144276,216.2329 -7.491905,0.35191 c -1.453306,0.0676 -2.575358,1.3012 -2.50773,2.75451 l 0.247644,5.26832 c 0.14713,3.1439 2.815217,5.5727 5.959115,5.42559 l 0.211151,-0.0104 c 3.143916,-0.1477 5.573296,-2.81521 5.425592,-5.95912 l -0.0087,-0.17639 c 0.190379,0.0523 0.389054,0.0845 0.596956,0.0747 1.060626,-0.0498 1.879806,-0.94921 1.829964,-2.00983 -0.04977,-1.06003 -0.950093,-1.87979 -2.010701,-1.82997 -0.207671,0.01 -0.402067,0.0605 -0.586528,0.13034 l -0.122518,-2.61461 c -0.03848,-0.81445 -0.728497,-1.44302 -1.542351,-1.40505 z"
       id="path94"
       inkscape:connector-curvature="0" />
    <path
       inkscape:connector-curvature="0"
       id="path100"
       style="fill:#000000;fill-opacity:1;fill-rule:nonzero;stroke:none;stroke-width:0.0593189"
       d="m 60.03949,217.49992 c 0,0 -0.403371,2.86747 1.891094,2.81883 2.293858,-0.0486 -0.198129,-3.05552 -0.198129,-3.05552 l -1.692965,0.23669" />
    <path
       inkscape:connector-curvature="0"
       id="path102"
       style="fill:#000000;fill-opacity:1;fill-rule:nonzero;stroke:none;stroke-width:0.0593189"
       d="m 56.314271,221.94409 c 0.03144,0.25448 0.263958,0.4354 0.519039,0.40396 0.254475,-0.032 0.435403,-0.26456 0.40337,-0.51904 -0.03144,-0.25507 -0.263975,-0.4354 -0.519039,-0.40396 -0.254492,0.032 -0.435403,0.26397 -0.40337,0.51904" />
    <path
       inkscape:connector-curvature="0"
       id="path104"
       style="fill:#000000;fill-opacity:1;fill-rule:nonzero;stroke:none;stroke-width:0.0593189"
       d="m 52.342866,222.11789 c 0.03195,0.25507 0.264564,0.4354 0.519039,0.40396 0.255064,-0.032 0.435991,-0.26396 0.403959,-0.51904 -0.03195,-0.25447 -0.263959,-0.4354 -0.519039,-0.40336 -0.254476,0.0314 -0.434814,0.26337 -0.403959,0.51844" />
    <path
       inkscape:connector-curvature="0"
       id="path106"
       style="fill:none;fill-opacity:1;stroke:#000000;stroke-width:0.37067965;stroke-linecap:round;stroke-linejoin:round;stroke-miterlimit:10;stroke-dasharray:none;stroke-opacity:1"
       d="m 54.176419,222.12205 -0.02371,1.9332 c 0,0 0.11619,0.69759 1.101554,0.37489" />
    <path
       inkscape:connector-curvature="0"
       id="path108"
       style="fill:#000000;fill-opacity:1;fill-rule:nonzero;stroke:none;stroke-width:0.0593189"
       d="m 57.953832,220.46468 c -0.02724,0.006 -0.05633,0.009 -0.08592,0.009 l -2.10523,0.0214 c -0.234903,0.002 -0.427685,-0.18626 -0.430056,-0.42176 -0.0017,-0.2349 0.185081,-0.42591 0.421161,-0.42947 l 2.105819,-0.0219 c 0.234902,-0.002 0.427096,0.18626 0.430072,0.42175 0.0017,0.20525 -0.141749,0.37846 -0.335758,0.42058" />
    <path
       inkscape:connector-curvature="0"
       id="path110"
       style="fill:#000000;fill-opacity:1;fill-rule:nonzero;stroke:none;stroke-width:0.0593189"
       d="m 53.166203,220.60229 c -0.02791,0.006 -0.057,0.009 -0.08542,0.009 l -1.287207,0.0131 c -0.235509,0.002 -0.427702,-0.18627 -0.430073,-0.42117 -0.0034,-0.2349 0.186275,-0.42769 0.420572,-0.43006 l 1.287224,-0.0136 c 0.234903,-0.002 0.427685,0.18685 0.430661,0.42176 0.0017,0.20524 -0.142422,0.37845 -0.335758,0.42057" />
    <path
       inkscape:connector-curvature="0"
       id="path112"
       style="fill:#000000;fill-opacity:1;fill-rule:nonzero;stroke:none;stroke-width:0.0593189"
       d="m 51.347497,218.20166 c 0,0 2.030488,0.31736 4.963209,-0.40871 2.932132,-0.72665 5.253281,1.6378 5.253281,1.6378 0,0 0.624637,1.09324 0.781821,1.06477 0.156546,-0.0285 1.04995,-0.37312 1.04995,-0.37312 l -0.03615,-3.31592 -2.143199,-1.67695 -5.962143,-0.24261 -3.525913,0.77589 -0.380822,2.53885" />
    <path
       inkscape:connector-curvature="0"
       id="path60"
       style="fill:#002255;fill-opacity:1;fill-rule:nonzero;stroke:none;stroke-width:0.0593189"
       d="m 24.347258,289.56218 -4.569928,1.89347 -2.888834,0.21176 c -1.327545,0.0974 -2.432076,1.05826 -2.712648,2.35971 l -0.13166,0.60861 15.669683,1.95692 0.316169,-6.30619 -5.682748,-0.72428" />
    <path
       inkscape:connector-curvature="0"
       id="path72"
       style="fill:#002255;fill-opacity:1;fill-rule:nonzero;stroke:none;stroke-width:0.0593189"
       d="M 11.954999,276.7245 7.0612013,276.00081 4.4737055,274.69816 C 3.2843607,274.09963 1.8435,274.35649 0.93355005,275.32872 l -0.42472516,0.45497 12.43740711,9.72949 3.511082,-5.24794 -4.502315,-3.54074" />
    <path
       style="opacity:1;fill:#000000;fill-opacity:1;stroke:none;stroke-width:0.22809421;stroke-linecap:round;stroke-linejoin:bevel;stroke-miterlimit:4;stroke-dasharray:none;stroke-dashoffset:0;stroke-opacity:1"
       d="m 56.154294,226.48795 c 0,0.19812 -0.474833,0.35872 -1.060577,0.35872 -0.585726,0 -1.06056,-0.1606 -1.06056,-0.35872 0,-0.19811 0.381242,-0.0156 0.966986,-0.0156 0.585727,0 1.154151,-0.18252 1.154151,0.0156 z"
       id="path2491"
       inkscape:connector-curvature="0"
       sodipodi:nodetypes="ccccc" />
  </g>
</svg>
