<?xml version="1.0" encoding="UTF-8" standalone="no"?>
<!-- Created with Inkscape (http://www.inkscape.org/) -->

<svg
   xmlns:dc="http://purl.org/dc/elements/1.1/"
   xmlns:cc="http://creativecommons.org/ns#"
   xmlns:rdf="http://www.w3.org/1999/02/22-rdf-syntax-ns#"
   xmlns:svg="http://www.w3.org/2000/svg"
   xmlns="http://www.w3.org/2000/svg"
   xmlns:xlink="http://www.w3.org/1999/xlink"
   xmlns:sodipodi="http://sodipodi.sourceforge.net/DTD/sodipodi-0.dtd"
   xmlns:inkscape="http://www.inkscape.org/namespaces/inkscape"
   width="450"
   height="150"
   viewBox="0 0 119.0625 39.687501"
   version="1.1"
   id="svg8"
   inkscape:version="0.92.5 (0.92.5+68)"
   sodipodi:docname="chamilo_zoom.svg">
  <defs
     id="defs2">
    <clipPath
       id="clipPath833"
       clipPathUnits="userSpaceOnUse">
      <path
         inkscape:connector-curvature="0"
         id="path831"
         d="M 0,500 H 500 V 0 H 0 Z" />
    </clipPath>
    <clipPath
       id="clipPath841"
       clipPathUnits="userSpaceOnUse">
      <path
         inkscape:connector-curvature="0"
         id="path839"
         d="M 157.456,362.691 H 372.058 V 148.088 H 157.456 Z" />
    </clipPath>
    <clipPath
       id="clipPath993"
       clipPathUnits="userSpaceOnUse">
      <path
         inkscape:connector-curvature="0"
         id="path991"
         d="M 162.644,404.89 263.393,239.455 364.144,404.89 Z" />
    </clipPath>
    <clipPath
       id="clipPath1151"
       clipPathUnits="userSpaceOnUse">
      <path
         inkscape:connector-curvature="0"
         id="path1149"
         d="M 0,500 H 500 V 0 H 0 Z" />
    </clipPath>
    <clipPath
       id="clipPath1235"
       clipPathUnits="userSpaceOnUse">
      <path
         inkscape:connector-curvature="0"
         id="path1233"
         d="m 294.645,161.428 85.147,-85.147 85.146,85.147 -85.146,85.146 z" />
    </clipPath>
    <clipPath
       id="clipPath1367"
       clipPathUnits="userSpaceOnUse">
      <path
         inkscape:connector-curvature="0"
         id="path1365"
         d="M 0,500 H 500 V 0 H 0 Z" />
    </clipPath>
    <clipPath
       id="clipPath1423"
       clipPathUnits="userSpaceOnUse">
      <path
         inkscape:connector-curvature="0"
         id="path1421"
         d="m 57.455,155.809 c 0,-38.801 31.454,-70.254 70.254,-70.254 v 0 c 38.801,0 70.254,31.453 70.254,70.254 v 0 c 0,38.8 -31.453,70.254 -70.254,70.254 v 0 c -38.8,0 -70.254,-31.454 -70.254,-70.254" />
    </clipPath>
    <clipPath
       id="clipPath1603"
       clipPathUnits="userSpaceOnUse">
      <path
         inkscape:connector-curvature="0"
         id="path1601"
         d="M 0,500 H 500 V 0 H 0 Z" />
    </clipPath>
    <clipPath
       id="clipPath1715"
       clipPathUnits="userSpaceOnUse">
      <path
         inkscape:connector-curvature="0"
         id="path1713"
         d="M 0,500 H 500 V 0 H 0 Z" />
    </clipPath>
    <circle
       r="261.9"
       cy="30.1"
       cx="-395.9"
       id="SVGID_1_" />
    <circle
       r="256.8"
       cy="30.1"
       cx="-395.9"
       id="SVGID_3_" />
    <circle
       r="236.2"
       cy="30.1"
       cx="-395.9"
       id="SVGID_5_" />
    <path
       d="M-324-0.6l66.8-48.8c5.8-4.8,10.3-3.6,10.3,5.1v148.8c0,9.9-5.5,8.7-10.3,5.1L-324,60.9V-0.6z M-550-43.9    V67.1c0.1,25.1,20.6,45.3,45.6,45.2h161.8c4.6,0,8.3-3.7,8.3-8.2V-6.9c-0.1-25.1-20.6-45.3-45.6-45.2h-161.8    C-546.3-52.1-550-48.4-550-43.9z"
       id="SVGID_7_" />
  </defs>
  <sodipodi:namedview
     id="base"
     pagecolor="#ffffff"
     bordercolor="#666666"
     borderopacity="1.0"
     inkscape:pageopacity="0.0"
     inkscape:pageshadow="2"
     inkscape:zoom="1.5564636"
     inkscape:cx="202.92439"
     inkscape:cy="-14.068948"
     inkscape:document-units="mm"
     inkscape:current-layer="layer1"
     showgrid="false"
     units="px"
     inkscape:window-width="1920"
     inkscape:window-height="1016"
     inkscape:window-x="0"
     inkscape:window-y="27"
     inkscape:window-maximized="1" />
  <metadata
     id="metadata5">
    <rdf:RDF>
      <cc:Work
         rdf:about="">
        <dc:format>image/svg+xml</dc:format>
        <dc:type
           rdf:resource="http://purl.org/dc/dcmitype/StillImage" />
        <dc:title></dc:title>
      </cc:Work>
    </rdf:RDF>
  </metadata>
  <g
     inkscape:label="Capa 1"
     inkscape:groupmode="layer"
     id="layer1"
     transform="translate(0,-257.31248)">
    <g
       id="g3077"
       transform="translate(-17.909967,203.6207)">
      <g
         transform="matrix(0.17776493,0,0,-0.17776493,118.3281,88.84238)"
         id="g1225">
        <path
           inkscape:connector-curvature="0"
           id="path1227"
           style="fill:#75154b;fill-opacity:1;fill-rule:nonzero;stroke:none"
           d="M 0,0 -85.147,85.146 0,170.293 85.146,85.146 Z" />
      </g>
      <g
         transform="matrix(0.17776493,0,0,-0.17776493,50.814401,102.40252)"
         id="g1229">
        <g
           clip-path="url(#clipPath1235)"
           id="g1231">
          <g
             transform="translate(414.9629,62.4248)"
             id="g1237">
            <path
               inkscape:connector-curvature="0"
               id="path1239"
               style="fill:none;stroke:#49052e;stroke-width:1.12399995;stroke-linecap:butt;stroke-linejoin:miter;stroke-miterlimit:10;stroke-dasharray:none;stroke-opacity:1"
               d="M 0,0 5.477,0.131 C 14.859,0.355 22.284,8.144 22.06,17.527 L 21.407,44.768" />
          </g>
          <g
             transform="translate(434.8506,97.3213)"
             id="g1241">
            <path
               inkscape:connector-curvature="0"
               id="path1243"
               style="fill:#eaf4fe;fill-opacity:1;fill-rule:nonzero;stroke:none"
               d="m 0,0 v 0 c -6.557,-0.157 -11.999,5.031 -12.156,11.588 l -0.928,38.765 c -0.157,6.556 5.03,11.999 11.588,12.155 6.556,0.157 11.998,-5.03 12.155,-11.587 L 11.587,12.156 C 11.744,5.6 6.557,0.157 0,0" />
          </g>
          <g
             transform="translate(434.8506,97.3213)"
             id="g1245">
            <path
               inkscape:connector-curvature="0"
               id="path1247"
               style="fill:none;stroke:#49052e;stroke-width:1.12399995;stroke-linecap:butt;stroke-linejoin:miter;stroke-miterlimit:10;stroke-dasharray:none;stroke-opacity:1"
               d="m 0,0 v 0 c -6.557,-0.157 -11.999,5.031 -12.156,11.588 l -0.928,38.765 c -0.157,6.556 5.03,11.999 11.588,12.155 6.556,0.157 11.998,-5.03 12.155,-11.587 L 11.587,12.156 C 11.744,5.6 6.557,0.157 0,0 Z" />
          </g>
          <g
             transform="translate(428.5723,109.1318)"
             id="g1249">
            <path
               inkscape:connector-curvature="0"
               id="path1251"
               style="fill:#c5e0f8;fill-opacity:1;fill-rule:nonzero;stroke:none"
               d="M 0,0 C 1.91,0.046 3.238,9.321 2.966,20.717 2.693,32.112 0.923,41.313 -0.988,41.267 -2.899,41.222 -4.228,31.946 -3.954,20.551 -3.682,9.155 -1.911,-0.046 0,0" />
          </g>
          <g
             transform="translate(371.1152,108.6201)"
             id="g1253">
            <path
               inkscape:connector-curvature="0"
               id="path1255"
               style="fill:#64d4e4;fill-opacity:1;fill-rule:nonzero;stroke:none"
               d="m 0,0 6.175,39.297 c 0.714,4.851 5.084,8.824 9.791,8.902 0.173,0.003 0.34,-0.011 0.51,-0.018 1.991,1.819 4.34,3.066 7.083,3.566 0,0 2.513,-76.706 -8.76,-73.455 -1.999,0.576 -3.851,1.397 -4.053,3.396 0,0 -0.267,4.236 -0.622,10.118 C 9.23,-8.502 8.297,-8.683 7.349,-8.698 2.612,-8.775 -0.678,-4.882 0,0" />
          </g>
          <g
             transform="translate(371.1152,108.6201)"
             id="g1257">
            <path
               inkscape:connector-curvature="0"
               id="path1259"
               style="fill:none;stroke:#49052e;stroke-width:1.12399995;stroke-linecap:butt;stroke-linejoin:miter;stroke-miterlimit:10;stroke-dasharray:none;stroke-opacity:1"
               d="m 0,0 6.175,39.297 c 0.714,4.851 5.084,8.824 9.791,8.902 0.173,0.003 0.34,-0.011 0.51,-0.018 1.991,1.819 4.34,3.066 7.083,3.566 0,0 2.513,-76.706 -8.76,-73.455 -1.999,0.576 -3.851,1.397 -4.053,3.396 0,0 -0.267,4.236 -0.622,10.118 C 9.23,-8.502 8.297,-8.683 7.349,-8.698 2.612,-8.775 -0.678,-4.882 0,0 Z" />
          </g>
          <g
             transform="translate(379.6846,136.7168)"
             id="g1261">
            <path
               inkscape:connector-curvature="0"
               id="path1263"
               style="fill:#64d4e4;fill-opacity:1;fill-rule:nonzero;stroke:none"
               d="m 0,0 c -0.128,3.825 0.265,7.657 1.354,11.346 2.346,7.943 6.851,13.33 13.905,13.482 l 10.525,1.808 c 11.033,0.237 21.202,-13.88 19.689,-38.84 l 1.875,-29.738 c 0.423,-0.998 0.365,-2.115 -0.162,-3.065 -7.028,-12.671 -29.411,-6.979 -40.728,-1.936 -2.006,0.894 -3.864,2.008 -4.067,4.032 0,0 -2.055,32.814 -2.391,42.911" />
          </g>
          <g
             transform="translate(379.6846,136.7168)"
             id="g1265">
            <path
               inkscape:connector-curvature="0"
               id="path1267"
               style="fill:none;stroke:#49052e;stroke-width:1.12399995;stroke-linecap:butt;stroke-linejoin:miter;stroke-miterlimit:10;stroke-dasharray:none;stroke-opacity:1"
               d="m 0,0 c -0.128,3.825 0.265,7.657 1.354,11.346 2.346,7.943 6.851,13.33 13.905,13.482 l 10.525,1.808 c 11.033,0.237 21.202,-13.88 19.689,-38.84 l 1.875,-29.738 c 0.423,-0.998 0.365,-2.115 -0.162,-3.065 -7.028,-12.671 -29.411,-6.979 -40.728,-1.936 -2.006,0.894 -3.864,2.008 -4.067,4.032 0,0 -2.055,32.814 -2.391,42.911 z" />
          </g>
          <g
             transform="translate(413.5107,157.8926)"
             id="g1269">
            <path
               inkscape:connector-curvature="0"
               id="path1271"
               style="fill:#64d4e4;fill-opacity:1;fill-rule:nonzero;stroke:#49052e;stroke-width:1.12399995;stroke-linecap:round;stroke-linejoin:miter;stroke-miterlimit:10;stroke-dasharray:none;stroke-opacity:1"
               d="m 0,0 v 0 c 4.923,1.376 10.023,-1.525 11.356,-6.461 l 10.218,-39.427 c 1.367,-4.892 -1.49,-9.967 -6.383,-11.335 -4.892,-1.367 -9.967,1.491 -11.335,6.383 l -10.259,39.584" />
          </g>
          <g
             transform="translate(421.6953,101.834)"
             id="g1273">
            <path
               inkscape:connector-curvature="0"
               id="path1275"
               style="fill:#64d4e4;fill-opacity:1;fill-rule:nonzero;stroke:#49052e;stroke-width:1.12399995;stroke-linecap:round;stroke-linejoin:miter;stroke-miterlimit:10;stroke-dasharray:none;stroke-opacity:1"
               d="m 0,0 -30.308,-0.435 c -0.884,-0.933 -1.967,-1.71 -3.22,-2.257 -4.492,-1.964 -9.639,-0.322 -12.234,3.649 l -2.74,0.178 -4.881,-1.074 c -1.694,-0.373 -3.37,0.698 -3.743,2.391 -0.372,1.694 0.698,3.369 2.393,3.742 l 3.922,0.864 c 0.569,0.421 0.079,0.632 0.834,0.612 l -0.14,0.408 c -0.239,0.068 -0.46,0.168 -0.668,0.284 l -3.719,-0.651 c -1.549,-0.272 -3.024,0.765 -3.296,2.313 -0.27,1.549 0.765,3.025 2.314,3.295 l 4.227,0.741 c -0.01,1.142 0.799,2.158 1.961,2.361 l 4.636,0.811 c 0.417,0.074 0.823,0.024 1.195,-0.108 0.033,-0.008 0.066,-0.008 0.098,-0.018 l 42.847,-1.085" />
          </g>
          <g
             transform="translate(415.9111,188.4453)"
             id="g1277">
            <path
               inkscape:connector-curvature="0"
               id="path1279"
               style="fill:#f9b22b;fill-opacity:1;fill-rule:nonzero;stroke:none"
               d="m 0,0 c 6.488,0.336 11.988,-4.054 12.285,-9.802 0.298,-5.749 -4.722,-10.681 -11.21,-11.016 -6.487,-0.336 -11.988,4.052 -12.285,9.801 C -11.507,-5.268 -6.488,-0.335 0,0" />
          </g>
          <g
             transform="translate(401.9785,170.9336)"
             id="g1281">
            <path
               inkscape:connector-curvature="0"
               id="path1283"
               style="fill:#f3920c;fill-opacity:1;fill-rule:nonzero;stroke:none"
               d="m 0,0 c -6.754,-2.307 -17.545,0.278 -23.581,4.981 -1.687,-1.168 -3.677,-2.044 -5.829,-2.458 -6.224,-1.193 -11.382,1.892 -11.52,6.891 -0.137,4.999 4.797,10.02 11.022,11.213 1.553,0.297 3.038,0.328 4.396,0.131 2.7,3.912 7.13,7.264 11.783,8.853 C -4.917,32.62 1.353,28.169 4.38,20.684 7.406,13.198 8.812,3.009 0,0" />
          </g>
          <g
             transform="translate(416.1201,171.833)"
             id="g1285">
            <path
               inkscape:connector-curvature="0"
               id="path1287"
               style="fill:#f3920c;fill-opacity:1;fill-rule:nonzero;stroke:none"
               d="m 0,0 c -5.104,-0.264 -9.586,2.403 -11.415,6.35 -0.007,-0.25 -0.017,-0.5 -0.004,-0.754 0.297,-5.749 5.798,-10.138 12.285,-9.802 6.488,0.335 11.507,5.268 11.21,11.017 -0.062,1.225 -0.375,2.383 -0.87,3.453 C 11.049,4.844 6.202,0.321 0,0" />
          </g>
          <g
             transform="translate(370.3584,166.9004)"
             id="g1289">
            <path
               inkscape:connector-curvature="0"
               id="path1291"
               style="fill:#eaf4fe;fill-opacity:1;fill-rule:nonzero;stroke:none"
               d="m 0,0 -2.238,9.993 c -1.88,8.391 3.398,16.718 11.79,18.598 l 0.825,0.185 c 8.392,1.88 16.718,-3.399 18.598,-11.79 L 31.214,6.993 C 31.602,5.264 31.669,3.54 31.483,1.872 l 4.196,-5.505 c 2.657,-3.489 1.984,-8.471 -1.503,-11.128 -3.489,-2.658 -8.471,-1.984 -11.128,1.504 l -1.7,2.231 c -0.623,-0.227 -1.26,-0.43 -1.924,-0.578 L 18.599,-11.79 C 10.207,-13.67 1.88,-8.392 0,0" />
          </g>
          <g
             transform="translate(370.3584,166.9004)"
             id="g1293">
            <path
               inkscape:connector-curvature="0"
               id="path1295"
               style="fill:none;stroke:#49052e;stroke-width:1.12399995;stroke-linecap:butt;stroke-linejoin:miter;stroke-miterlimit:10;stroke-dasharray:none;stroke-opacity:1"
               d="m 0,0 -2.238,9.993 c -1.88,8.391 3.398,16.718 11.79,18.598 l 0.825,0.185 c 8.392,1.88 16.718,-3.399 18.598,-11.79 L 31.214,6.993 C 31.602,5.264 31.669,3.54 31.483,1.872 l 4.196,-5.505 c 2.657,-3.489 1.984,-8.471 -1.503,-11.128 -3.489,-2.658 -8.471,-1.984 -11.128,1.504 l -1.7,2.231 c -0.623,-0.227 -1.26,-0.43 -1.924,-0.578 L 18.599,-11.79 C 10.207,-13.67 1.88,-8.392 0,0 Z" />
          </g>
          <g
             transform="translate(395.4287,157.8145)"
             id="g1297">
            <path
               inkscape:connector-curvature="0"
               id="path1299"
               style="fill:#eaf4fe;fill-opacity:1;fill-rule:nonzero;stroke:#49052e;stroke-width:1.12399995;stroke-linecap:round;stroke-linejoin:miter;stroke-miterlimit:10;stroke-dasharray:none;stroke-opacity:1"
               d="M 0,0 C -1.646,-1.176 -3.549,-2.049 -5.646,-2.519 L -5.853,-2.565 -6.06,-2.611 -6.266,-2.657 -6.472,-2.704 c -2.098,-0.47 -4.192,-0.492 -6.181,-0.131 -1.991,0.362 -3.877,1.107 -5.56,2.175 -1.683,1.066 -3.162,2.454 -4.338,4.099 -1.177,1.646 -2.049,3.549 -2.519,5.647 l -0.56,2.498 -0.559,2.498 -0.56,2.499 -0.56,2.498 c -0.47,2.098 -0.493,4.192 -0.13,6.182 0.361,1.99 1.107,3.876 2.173,5.558 1.067,1.683 2.454,3.162 4.1,4.339 1.645,1.176 3.549,2.049 5.647,2.519 l 0.206,0.046 0.207,0.047 0.207,0.045 0.206,0.046 c 2.097,0.471 4.191,0.493 6.181,0.132 1.991,-0.362 3.876,-1.107 5.559,-2.175 1.683,-1.066 3.162,-2.454 4.339,-4.099 1.176,-1.646 2.049,-3.549 2.518,-5.647 l 0.561,-2.499 0.559,-2.498 0.56,-2.498 0.56,-2.498 c 0.469,-2.098 0.492,-4.191 0.13,-6.182" />
          </g>
          <g
             transform="translate(383.4492,204.4629)"
             id="g1301">
            <path
               inkscape:connector-curvature="0"
               id="path1303"
               style="fill:#f9b22b;fill-opacity:1;fill-rule:nonzero;stroke:none"
               d="m 0,0 c 1.943,1.09 4.192,1.857 6.575,2.133 6.895,0.797 12.243,-2.757 11.946,-7.937 -0.298,-5.18 -6.129,-10.026 -13.024,-10.823 -1.719,-0.199 -3.342,-0.127 -4.805,0.173 -3.295,-3.857 -8.425,-7.014 -13.642,-8.33 -9.878,-2.493 -15.982,2.67 -18.946,10.507 C -37.979,1.802 -6.161,5.289 0,0" />
          </g>
          <g
             transform="translate(391.4141,185.7715)"
             id="g1305">
            <path
               inkscape:connector-curvature="0"
               id="path1307"
               style="fill:#f3920c;fill-opacity:1;fill-rule:nonzero;stroke:none"
               d="m 0,0 c 0.943,-4.094 4.186,-6.842 7.24,-6.138 3.056,0.705 4.767,4.595 3.823,8.69 C 10.118,6.646 6.876,9.394 3.821,8.689 0.767,7.984 -0.944,4.095 0,0" />
          </g>
          <g
             transform="translate(395.2705,177.3652)"
             id="g1309">
            <path
               inkscape:connector-curvature="0"
               id="path1311"
               style="fill:#eaf4fe;fill-opacity:1;fill-rule:nonzero;stroke:#49052e;stroke-width:1.12399995;stroke-linecap:round;stroke-linejoin:miter;stroke-miterlimit:10;stroke-dasharray:none;stroke-opacity:1"
               d="M 0,0 C -0.739,2.403 0.611,4.95 3.016,5.687 5.558,6.469 8.252,5.042 9.033,2.501 9.815,-0.041 8.389,-2.735 5.848,-3.518" />
          </g>
          <g
             transform="translate(373.373,172.5088)"
             id="g1313">
            <path
               inkscape:connector-curvature="0"
               id="path1315"
               style="fill:#49052e;fill-opacity:1;fill-rule:nonzero;stroke:none"
               d="m 0,0 c 0.25,-0.738 0.03,-1.48 -0.49,-1.657 -0.522,-0.177 -1.148,0.278 -1.398,1.016 -0.251,0.739 -0.031,1.481 0.49,1.658 C -0.877,1.193 -0.251,0.738 0,0" />
          </g>
          <g
             transform="translate(369.9355,176.7842)"
             id="g1317">
            <path
               inkscape:connector-curvature="0"
               id="path1319"
               style="fill:none;stroke:#49052e;stroke-width:1.19099998;stroke-linecap:round;stroke-linejoin:miter;stroke-miterlimit:10;stroke-dasharray:none;stroke-opacity:1"
               d="M 0,0 C 0.459,0.508 1.214,1.019 2.489,1.414" />
          </g>
          <g
             transform="translate(382.5586,174.9141)"
             id="g1321">
            <path
               inkscape:connector-curvature="0"
               id="path1323"
               style="fill:#49052e;fill-opacity:1;fill-rule:nonzero;stroke:none"
               d="m 0,0 c 0.25,-0.739 0.031,-1.48 -0.49,-1.657 -0.522,-0.178 -1.147,0.278 -1.398,1.016 -0.251,0.739 -0.031,1.48 0.491,1.657 C -0.877,1.193 -0.251,0.738 0,0" />
          </g>
          <g
             transform="translate(383.3213,181.6865)"
             id="g1325">
            <path
               inkscape:connector-curvature="0"
               id="path1327"
               style="fill:none;stroke:#49052e;stroke-width:1.19099998;stroke-linecap:round;stroke-linejoin:miter;stroke-miterlimit:10;stroke-dasharray:none;stroke-opacity:1"
               d="M 0,0 C -0.697,0.097 -1.617,0.051 -2.798,-0.421" />
          </g>
          <g
             transform="translate(382.5342,169.8867)"
             id="g1329">
            <path
               inkscape:connector-curvature="0"
               id="path1331"
               style="fill:none;stroke:#49052e;stroke-width:1.19099998;stroke-linecap:round;stroke-linejoin:miter;stroke-miterlimit:10;stroke-dasharray:none;stroke-opacity:1"
               d="M 0,0 C 0.898,-2.251 -0.197,-4.805 -2.449,-5.703" />
          </g>
          <g
             transform="translate(389.8115,193.8047)"
             id="g1333">
            <path
               inkscape:connector-curvature="0"
               id="path1335"
               style="fill:#f3920c;fill-opacity:1;fill-rule:nonzero;stroke:none"
               d="m 0,0 c -1.815,-0.21 -3.529,-0.134 -5.075,0.183 -3.481,-4.075 -8.9,-7.409 -14.41,-8.799 -9.871,-2.492 -16.17,2.26 -19.473,9.789 -0.153,-1.455 0.038,-3.045 0.699,-4.792 2.965,-7.837 9.069,-13 18.947,-10.507 5.216,1.316 10.347,4.474 13.642,8.33 1.463,-0.3 3.086,-0.372 4.805,-0.173 C 6.029,-5.172 11.86,-0.326 12.158,4.854 12.195,5.5 12.145,6.12 12.014,6.71 9.636,3.276 5.098,0.589 0,0" />
          </g>
          <g
             transform="translate(400.9805,103.4141)"
             id="g1337">
            <path
               inkscape:connector-curvature="0"
               id="path1339"
               style="fill:#49052e;fill-opacity:1;fill-rule:nonzero;stroke:none"
               d="m 0,0 c -5.664,3.625 -12.582,3.674 -18.135,0.749 l -34.134,15.55 c -7.477,3.525 -16.396,0.321 -19.92,-7.156 -1.864,-3.952 -1.832,-8.298 -0.299,-12.046 l 2.092,-41.161 c 0.024,-0.879 0.172,-1.725 0.419,-2.528 -0.294,-0.291 -0.567,-0.609 -0.788,-0.984 l -11.937,-20.345 -1.468,-1.001 c -2.597,-1.769 -3.267,-5.308 -1.498,-7.904 l 0.179,-0.262 2.399,1.635 27.513,16.519 c 2.626,1.578 2.673,5.339 0.881,8.092 1.871,1.671 3.081,4.074 3.15,6.78 l 3.002,25.771 31.177,-14.203 c 4.254,-2.005 8.971,-1.827 12.899,0.071 3.959,1.204 7.53,3.759 9.935,7.517 C 10.835,-16.519 8.387,-5.367 0,0" />
          </g>
          <g
             transform="translate(329.7891,40.79)"
             id="g1341">
            <path
               inkscape:connector-curvature="0"
               id="path1343"
               style="fill:#ec2e27;fill-opacity:1;fill-rule:nonzero;stroke:none"
               d="m 0,0 -38.727,-17.875 c -0.952,-0.505 -1.604,-2.084 -1.605,-3.887 l 42.75,-0.611 c 5.397,-0.077 8.146,8.22 4.391,13.252 z" />
          </g>
          <g
             transform="translate(289.457,19.0283)"
             id="g1345">
            <path
               inkscape:connector-curvature="0"
               id="path1347"
               style="fill:none;stroke:#000763;stroke-width:1.39300001;stroke-linecap:round;stroke-linejoin:miter;stroke-miterlimit:10;stroke-dasharray:none;stroke-opacity:1"
               d="m 0,0 42.75,-0.611 c 5.397,-0.077 8.146,8.219 4.391,13.252" />
          </g>
          <g
             transform="translate(313.0146,27.7246)"
             id="g1349">
            <path
               inkscape:connector-curvature="0"
               id="path1351"
               style="fill:none;stroke:#000763;stroke-width:1.28100002;stroke-linecap:round;stroke-linejoin:round;stroke-miterlimit:10;stroke-dasharray:none;stroke-opacity:1"
               d="m 0,0 -4.852,4.729 1.811,-8.1 -4.465,5.229" />
          </g>
          <g
             transform="translate(410.8916,105.7471)"
             id="g1353">
            <path
               inkscape:connector-curvature="0"
               id="path1355"
               style="fill:#f6424c;fill-opacity:1;fill-rule:nonzero;stroke:none"
               d="m 0,0 c -7.285,1.443 -14.418,-1.296 -18.947,-6.543 l -41.366,2.227 c -9.109,0.61 -16.988,-6.281 -17.597,-15.39 -0.013,-0.194 -0.003,-0.384 -0.01,-0.577 l -16.598,-43.556 c -2.099,-5.127 0.183,-11.001 5.195,-13.364 5.201,-2.452 11.406,-0.225 13.858,4.976 l 20.27,34.53 50.439,-2.715 c 5.183,-0.347 9.961,1.738 13.235,5.273 3.585,2.834 6.226,6.901 7.184,11.735 C 17.801,-12.616 10.788,-2.138 0,0" />
          </g>
          <g
             transform="translate(410.8916,105.7471)"
             id="g1357">
            <path
               inkscape:connector-curvature="0"
               id="path1359"
               style="fill:none;stroke:#49052e;stroke-width:1.12399995;stroke-linecap:butt;stroke-linejoin:miter;stroke-miterlimit:10;stroke-dasharray:none;stroke-opacity:1"
               d="m 0,0 c -7.285,1.443 -14.418,-1.296 -18.947,-6.543 l -41.366,2.227 c -9.109,0.61 -16.988,-6.281 -17.597,-15.39 -0.013,-0.194 -0.003,-0.384 -0.01,-0.577 l -16.598,-43.556 c -2.099,-5.127 0.183,-11.001 5.195,-13.364 5.201,-2.452 11.406,-0.225 13.858,4.976 l 20.27,34.53 50.439,-2.715 c 5.183,-0.347 9.961,1.738 13.235,5.273 3.585,2.834 6.226,6.901 7.184,11.735 C 17.801,-12.616 10.788,-2.138 0,0 Z" />
          </g>
        </g>
      </g>
      <g
         transform="matrix(0.17776493,0,0,-0.17776493,103.03632,75.077064)"
         id="g1369">
        <path
           inkscape:connector-curvature="0"
           id="path1371"
           style="fill:none;stroke:#49052e;stroke-width:1.07099998;stroke-linecap:butt;stroke-linejoin:miter;stroke-miterlimit:10;stroke-dasharray:2.554;stroke-dashoffset:0;stroke-opacity:1"
           d="M 0,0 -7.711,7.711 15.723,31.145 39.156,54.577 62.589,78.011 86.022,101.444 109.455,78.011 132.889,54.577 156.322,31.145 179.755,7.711 156.322,-15.723 132.889,-39.155 109.455,-62.589 86.022,-86.022 62.589,-62.589" />
      </g>
      <g
         transform="matrix(0.17776493,0,0,-0.17776493,109.40947,85.189346)"
         id="g1373">
        <path
           inkscape:connector-curvature="0"
           id="path1375"
           style="fill:#eaf4fe;fill-opacity:1;fill-rule:nonzero;stroke:none"
           d="m 0,0 76.803,-0.216 c 2.711,-0.008 4.915,2.184 4.923,4.896 0.007,2.711 -2.185,4.915 -4.896,4.923 L 0.028,9.818 C -2.684,9.826 -4.888,7.634 -4.896,4.923 -4.903,2.211 -2.711,0.007 0,0" />
      </g>
      <g
         transform="matrix(0.17776493,0,0,-0.17776493,109.40947,85.189346)"
         id="g1377">
        <path
           inkscape:connector-curvature="0"
           id="path1379"
           style="fill:none;stroke:#49052e;stroke-width:1.12399995;stroke-linecap:butt;stroke-linejoin:miter;stroke-miterlimit:10;stroke-dasharray:none;stroke-opacity:1"
           d="m 0,0 76.803,-0.216 c 2.711,-0.008 4.915,2.184 4.923,4.896 0.007,2.711 -2.185,4.915 -4.896,4.923 L 0.028,9.818 C -2.684,9.826 -4.888,7.634 -4.896,4.923 -4.903,2.211 -2.711,0.007 0,0 Z" />
      </g>
      <g
         transform="matrix(0.17776493,0,0,-0.17776493,109.40947,85.189346)"
         id="g1381">
        <path
           inkscape:connector-curvature="0"
           id="path1383"
           style="fill:#eaf4fe;fill-opacity:1;fill-rule:nonzero;stroke:none"
           d="m 0,0 50.274,-0.142 c 2.712,-0.007 4.916,2.185 4.924,4.896 0.007,2.711 -2.184,4.916 -4.895,4.923 L 0.028,9.818 C -2.684,9.826 -4.888,7.634 -4.896,4.923 -4.903,2.211 -2.711,0.007 0,0" />
      </g>
      <g
         transform="matrix(0.17776493,0,0,-0.17776493,109.40947,85.189346)"
         id="g1385">
        <path
           inkscape:connector-curvature="0"
           id="path1387"
           style="fill:none;stroke:#49052e;stroke-width:1.12399995;stroke-linecap:butt;stroke-linejoin:miter;stroke-miterlimit:10;stroke-dasharray:none;stroke-opacity:1"
           d="m 0,0 50.274,-0.142 c 2.712,-0.007 4.916,2.185 4.924,4.896 0.007,2.711 -2.184,4.916 -4.895,4.923 L 0.028,9.818 C -2.684,9.826 -4.888,7.634 -4.896,4.923 -4.903,2.211 -2.711,0.007 0,0 Z" />
      </g>
      <g
         transform="matrix(0.17776493,0,0,-0.17776493,120.2606,84.552592)"
         id="g1389">
        <path
           inkscape:connector-curvature="0"
           id="path1391"
           style="fill:#49052e;fill-opacity:1;fill-rule:nonzero;stroke:none"
           d="m 0,0 11.833,-0.033 c 0.638,-0.002 1.156,0.513 1.158,1.152 0.002,0.638 -0.513,1.156 -1.152,1.158 L 0.007,2.311 C -0.632,2.313 -1.15,1.797 -1.152,1.159 -1.154,0.521 -0.638,0.002 0,0" />
      </g>
      <g
         transform="matrix(0.17776493,0,0,-0.17776493,109.45686,83.833729)"
         id="g1393">
        <path
           inkscape:connector-curvature="0"
           id="path1395"
           style="fill:#eaf4fe;fill-opacity:1;fill-rule:nonzero;stroke:none"
           d="m 0,0 41.767,-0.117 c 6.404,-0.019 10.739,6.334 8.228,12.059 L 34.741,46.73 c -1.397,3.188 -4.615,5.26 -8.18,5.27 l -41.766,0.117 c -6.404,0.018 -10.739,-6.335 -8.229,-12.059 L -8.18,5.27 C -6.782,2.082 -3.565,0.01 0,0" />
      </g>
      <g
         transform="matrix(0.17776493,0,0,-0.17776493,109.45686,83.833729)"
         id="g1397">
        <path
           inkscape:connector-curvature="0"
           id="path1399"
           style="fill:none;stroke:#49052e;stroke-width:1.12399995;stroke-linecap:butt;stroke-linejoin:miter;stroke-miterlimit:10;stroke-dasharray:none;stroke-opacity:1"
           d="m 0,0 41.767,-0.117 c 6.404,-0.019 10.739,6.334 8.228,12.059 L 34.741,46.73 c -1.397,3.188 -4.615,5.26 -8.18,5.27 l -41.766,0.117 c -6.404,0.018 -10.739,-6.335 -8.229,-12.059 L -8.18,5.27 C -6.782,2.082 -3.565,0.01 0,0 Z" />
      </g>
      <g
         transform="matrix(0.17776493,0,0,-0.17776493,117.3818,81.708176)"
         id="g1401">
        <path
           inkscape:connector-curvature="0"
           id="path1403"
           style="fill:#eaf4fe;fill-opacity:1;fill-rule:nonzero;stroke:#49052e;stroke-width:1.12399995;stroke-linecap:round;stroke-linejoin:miter;stroke-miterlimit:10;stroke-dasharray:none;stroke-opacity:1"
           d="m 0,0 -15.254,34.788 c -1.397,3.188 -4.614,5.26 -8.18,5.271 L -65.2,40.176 c -6.404,0.017 -10.739,-6.335 -8.229,-12.061 l 15.254,-34.787 c 1.399,-3.187 4.615,-5.26 8.181,-5.27 l 41.765,-0.118" />
      </g>
      <g
         transform="matrix(0.17776493,0,0,-0.17776493,111.24945,84.528292)"
         id="g1405">
        <path
           inkscape:connector-curvature="0"
           id="path1407"
           style="fill:#49052e;fill-opacity:1;fill-rule:nonzero;stroke:none"
           d="M 0,0 C -0.003,-0.799 0.662,-1.449 1.484,-1.451 2.307,-1.453 2.975,-0.808 2.978,-0.009 2.979,0.79 2.314,1.439 1.492,1.441 0.67,1.444 0.002,0.799 0,0" />
      </g>
    </g>
    <g
       id="g3193"
       transform="translate(-57.576338,203.6207)">
      <g
         transform="matrix(0.17776493,0,0,-0.17776493,83.199385,84.388018)"
         id="g1409">
        <path
           inkscape:connector-curvature="0"
           id="path1411"
           style="fill:none;stroke:#49052e;stroke-width:1.07099998;stroke-linecap:butt;stroke-linejoin:miter;stroke-miterlimit:10;stroke-dasharray:2.554;stroke-dashoffset:0;stroke-opacity:1"
           d="m 0,0 c -13.955,-13.955 -33.222,-22.598 -54.47,-22.598 -21.248,0 -40.514,8.643 -54.469,22.598 -13.955,13.955 -22.598,33.222 -22.598,54.47 0,21.247 8.643,40.513 22.598,54.468 13.955,13.956 33.221,22.598 54.469,22.598 21.248,0 40.515,-8.642 54.47,-22.598 C 13.955,94.983 22.598,75.717 22.598,54.47" />
      </g>
      <g
         transform="matrix(0.17776493,0,0,-0.17776493,86.005262,74.705215)"
         id="g1413">
        <path
           inkscape:connector-curvature="0"
           id="path1415"
           style="fill:#f9b22b;fill-opacity:1;fill-rule:nonzero;stroke:none"
           d="m 0,0 c 0,-38.801 -31.453,-70.254 -70.254,-70.254 -38.8,0 -70.254,31.453 -70.254,70.254 0,38.8 31.454,70.254 70.254,70.254 C -31.453,70.254 0,38.8 0,0" />
      </g>
      <g
         transform="matrix(0.17776493,0,0,-0.17776493,50.814401,102.40252)"
         id="g1417">
        <g
           clip-path="url(#clipPath1423)"
           id="g1419">
          <g
             transform="translate(102.1367,78.9277)"
             id="g1425">
            <path
               inkscape:connector-curvature="0"
               id="path1427"
               style="fill:none;stroke:#49052e;stroke-width:1.07099998;stroke-linecap:butt;stroke-linejoin:miter;stroke-miterlimit:10;stroke-dasharray:none;stroke-opacity:1"
               d="m 0,0 h -5.222 c -8.947,0 -16.2,7.253 -16.2,16.2 v 25.975" />
          </g>
          <g
             transform="translate(82.3887,111.7305)"
             id="g1429">
            <path
               inkscape:connector-curvature="0"
               id="path1431"
               style="fill:#eaf4fe;fill-opacity:1;fill-rule:nonzero;stroke:none"
               d="m 0,0 v 0 c 6.252,0 11.32,5.068 11.32,11.319 v 36.964 c 0,6.252 -5.068,11.32 -11.32,11.32 -6.252,0 -11.32,-5.068 -11.32,-11.32 V 11.319 C -11.32,5.068 -6.252,0 0,0" />
          </g>
          <g
             transform="translate(82.3887,111.7305)"
             id="g1433">
            <path
               inkscape:connector-curvature="0"
               id="path1435"
               style="fill:none;stroke:#49052e;stroke-width:1.07099998;stroke-linecap:butt;stroke-linejoin:miter;stroke-miterlimit:10;stroke-dasharray:none;stroke-opacity:1"
               d="m 0,0 v 0 c 6.252,0 11.32,5.068 11.32,11.319 v 36.964 c 0,6.252 -5.068,11.32 -11.32,11.32 -6.252,0 -11.32,-5.068 -11.32,-11.32 V 11.319 C -11.32,5.068 -6.252,0 0,0 Z" />
          </g>
          <g
             transform="translate(88.1025,123.1289)"
             id="g1437">
            <path
               inkscape:connector-curvature="0"
               id="path1439"
               style="fill:#c5e0f8;fill-opacity:1;fill-rule:nonzero;stroke:none"
               d="m 0,0 c -1.822,0 -3.3,8.809 -3.3,19.674 0,10.866 1.478,19.675 3.3,19.675 1.822,0 3.299,-8.809 3.299,-19.675 C 3.299,8.809 1.822,0 0,0" />
          </g>
          <g
             transform="translate(183.1143,128.6689)"
             id="g1441">
            <path
               inkscape:connector-curvature="0"
               id="path1443"
               style="fill:#0041bf;fill-opacity:1;fill-rule:nonzero;stroke:none"
               d="M 0,0 H -0.001 C -3.53,7.045 -12.104,9.895 -19.148,6.365 L -51.322,-9.232 c -5.359,2.661 -11.951,2.456 -17.266,-1.127 -7.87,-5.308 -9.948,-15.99 -4.641,-23.861 2.378,-3.526 5.838,-5.88 9.639,-6.936 3.787,-1.72 8.286,-1.782 12.295,0.226 l 29.386,14.247 3.449,-24.491 c 0.246,-4.957 4.465,-8.775 9.422,-8.529 4.776,0.237 8.53,4.174 8.541,8.956 l 1.056,39.274 C 1.934,-7.866 1.864,-3.723 0,0" />
          </g>
          <g
             transform="translate(183.7988,60.2539)"
             id="g1445">
            <path
               inkscape:connector-curvature="0"
               id="path1447"
               style="fill:#ec2e27;fill-opacity:1;fill-rule:nonzero;stroke:none"
               d="m 0,0 37.313,-16.151 c 0.919,-0.459 1.578,-1.95 1.62,-3.667 l -40.726,-1.559 c -5.143,-0.196 -7.951,7.648 -4.486,12.528 z" />
          </g>
          <g
             transform="translate(222.7314,40.4355)"
             id="g1449">
            <path
               inkscape:connector-curvature="0"
               id="path1451"
               style="fill:none;stroke:#000763;stroke-width:1.32799995;stroke-linecap:round;stroke-linejoin:miter;stroke-miterlimit:10;stroke-dasharray:none;stroke-opacity:1"
               d="m 0,0 -40.726,-1.559 c -5.142,-0.196 -7.951,7.648 -4.486,12.529" />
          </g>
          <g
             transform="translate(210.5889,40.4922)"
             id="g1453">
            <path
               inkscape:connector-curvature="0"
               id="path1455"
               style="fill:#000763;fill-opacity:1;fill-rule:nonzero;stroke:none"
               d="m 0,0 12.225,-0.253 0.009,0.469 C 12.312,3.93 9.362,7.004 5.648,7.08 2.611,7.143 0.098,4.731 0.035,1.694 Z" />
          </g>
          <g
             transform="translate(200.083,48.1846)"
             id="g1457">
            <path
               inkscape:connector-curvature="0"
               id="path1459"
               style="fill:none;stroke:#000763;stroke-width:1.22099996;stroke-linecap:round;stroke-linejoin:round;stroke-miterlimit:10;stroke-dasharray:none;stroke-opacity:1"
               d="M 0,0 4.516,4.618 2.975,-3.143 7.11,1.943" />
          </g>
          <g
             transform="translate(196.5576,61.625)"
             id="g1461">
            <path
               inkscape:connector-curvature="0"
               id="path1463"
               style="fill:#2d89ec;fill-opacity:1;fill-rule:nonzero;stroke:none"
               d="m 0,0 -16.811,41.13 c -0.01,0.183 -0.005,0.364 -0.022,0.549 -0.788,8.667 -8.454,15.053 -17.121,14.265 l -39.369,-3.066 c -4.437,4.897 -11.297,7.345 -18.206,5.803 -10.233,-2.284 -16.676,-12.429 -14.393,-22.66 1.024,-4.586 3.633,-8.401 7.114,-11.02 3.201,-3.294 7.802,-5.172 12.733,-4.724 l 48.006,3.739 20.103,-32.444 c 2.456,-4.9 8.42,-6.883 13.321,-4.426 C 0.077,-10.487 2.118,-4.838 0,0" />
          </g>
          <g
             transform="translate(196.5576,61.625)"
             id="g1465">
            <path
               inkscape:connector-curvature="0"
               id="path1467"
               style="fill:none;stroke:#49052e;stroke-width:1.07099998;stroke-linecap:butt;stroke-linejoin:miter;stroke-miterlimit:10;stroke-dasharray:none;stroke-opacity:1"
               d="m 0,0 -16.811,41.13 c -0.01,0.183 -0.005,0.364 -0.022,0.549 -0.788,8.667 -8.454,15.053 -17.121,14.265 l -39.369,-3.066 c -4.437,4.897 -11.297,7.345 -18.206,5.803 -10.233,-2.284 -16.676,-12.429 -14.393,-22.66 1.024,-4.586 3.633,-8.401 7.114,-11.02 3.201,-3.294 7.802,-5.172 12.733,-4.724 l 48.006,3.739 20.103,-32.444 c 2.456,-4.9 8.42,-6.883 13.321,-4.426 C 0.077,-10.487 2.118,-4.838 0,0 Z" />
          </g>
          <g
             transform="translate(109.0098,95.2129)"
             id="g1469">
            <path
               inkscape:connector-curvature="0"
               id="path1471"
               style="fill:none;stroke:#00036f;stroke-width:0.63800001;stroke-linecap:round;stroke-linejoin:miter;stroke-miterlimit:10;stroke-dasharray:none;stroke-opacity:1"
               d="M 0,0 1.272,0.105" />
          </g>
          <g
             transform="translate(112.7959,95.5264)"
             id="g1473">
            <path
               inkscape:connector-curvature="0"
               id="path1475"
               style="fill:none;stroke:#00036f;stroke-width:0.63800001;stroke-linecap:round;stroke-linejoin:miter;stroke-miterlimit:10;stroke-dasharray:2.522, 2.522;stroke-dashoffset:0;stroke-opacity:1"
               d="m 0,0 50.142,4.147 c 2.825,0.284 5.535,-1.191 6.834,-3.715 l 16.536,-37.581" />
          </g>
          <g
             transform="translate(186.8154,57.2227)"
             id="g1477">
            <path
               inkscape:connector-curvature="0"
               id="path1479"
               style="fill:none;stroke:#00036f;stroke-width:0.63800001;stroke-linecap:round;stroke-linejoin:miter;stroke-miterlimit:10;stroke-dasharray:none;stroke-opacity:1"
               d="M 0,0 0.514,-1.169" />
          </g>
          <g
             transform="translate(142.8691,123.9512)"
             id="g1481">
            <path
               inkscape:connector-curvature="0"
               id="path1483"
               style="fill:#4cc592;fill-opacity:1;fill-rule:nonzero;stroke:none"
               d="m 0,0 -6.78,37.309 c -0.792,4.607 -5.047,8.294 -9.534,8.259 -0.165,-10e-4 -0.325,-0.017 -0.486,-0.029 -1.939,1.69 -4.207,2.823 -6.831,3.238 0,0 13.965,-62.429 14.17,-56.817 0.858,-0.273 1.752,-0.423 2.656,-0.416 C -2.289,-8.423 0.757,-4.637 0,0" />
          </g>
          <g
             transform="translate(142.8691,123.9512)"
             id="g1485">
            <path
               inkscape:connector-curvature="0"
               id="path1487"
               style="fill:none;stroke:#49052e;stroke-width:1.07099998;stroke-linecap:butt;stroke-linejoin:miter;stroke-miterlimit:10;stroke-dasharray:none;stroke-opacity:1"
               d="m 0,0 -6.78,37.309 c -0.792,4.607 -5.047,8.294 -9.534,8.259 -0.165,-10e-4 -0.325,-0.017 -0.486,-0.029 -1.939,1.69 -4.207,2.823 -6.831,3.238 0,0 13.965,-62.429 14.17,-56.817 0.858,-0.273 1.752,-0.423 2.656,-0.416 C -2.289,-8.423 0.757,-4.637 0,0 Z" />
          </g>
          <g
             transform="translate(134.0615,150.5312)"
             id="g1489">
            <path
               inkscape:connector-curvature="0"
               id="path1491"
               style="fill:#4cc592;fill-opacity:1;fill-rule:nonzero;stroke:none"
               d="m 0,0 c 0.034,3.648 -0.427,7.291 -1.55,10.782 -2.417,7.516 -6.832,12.546 -13.557,12.53 l -10.073,1.483 c -10.519,-0.024 -19.887,-13.71 -17.877,-37.463 l -1.107,-28.382 c -0.381,-0.961 -0.3,-2.022 0.225,-2.916 6.985,-11.915 28.186,-5.981 38.855,-0.917 1.892,0.898 3.638,2.003 3.785,3.936 0,0 1.209,31.318 1.299,40.947" />
          </g>
          <g
             transform="translate(134.0615,150.5312)"
             id="g1493">
            <path
               inkscape:connector-curvature="0"
               id="path1495"
               style="fill:none;stroke:#49052e;stroke-width:1.07099998;stroke-linecap:butt;stroke-linejoin:miter;stroke-miterlimit:10;stroke-dasharray:none;stroke-opacity:1"
               d="m 0,0 c 0.034,3.648 -0.427,7.291 -1.55,10.782 -2.417,7.516 -6.832,12.546 -13.557,12.53 l -10.073,1.483 c -10.519,-0.024 -19.887,-13.71 -17.877,-37.463 l -1.107,-28.382 c -0.381,-0.961 -0.3,-2.022 0.225,-2.916 6.985,-11.915 28.186,-5.981 38.855,-0.917 1.892,0.898 3.638,2.003 3.785,3.936 0,0 1.209,31.318 1.299,40.947 z" />
          </g>
          <g
             transform="translate(101.3428,169.9404)"
             id="g1497">
            <path
               inkscape:connector-curvature="0"
               id="path1499"
               style="fill:#4cc592;fill-opacity:1;fill-rule:nonzero;stroke:#49052e;stroke-width:1.07099998;stroke-linecap:round;stroke-linejoin:miter;stroke-miterlimit:10;stroke-dasharray:none;stroke-opacity:1"
               d="m 0,0 v 0 c -4.723,1.198 -9.518,-1.683 -10.675,-6.416 l -8.838,-37.807 c -1.191,-4.693 1.648,-9.465 6.341,-10.656 4.694,-1.191 9.465,1.648 10.656,6.342 l 8.875,37.956" />
          </g>
          <g
             transform="translate(143.0283,125.458)"
             id="g1501">
            <path
               inkscape:connector-curvature="0"
               id="path1503"
               style="fill:#eaf4fe;fill-opacity:1;fill-rule:nonzero;stroke:none"
               d="M 0,0 3.559,-0.536 C 5.041,-0.759 6.424,0.262 6.646,1.744 6.87,3.227 5.85,4.608 4.367,4.832 L 0.322,5.44 C 0.306,6.529 -0.489,7.479 -1.601,7.646 L -6.037,8.313 C -6.436,8.374 -6.822,8.316 -7.174,8.183 -7.205,8.175 -7.236,8.174 -7.268,8.164 l -3.551,-1.105 c -1.904,0.371 -3.833,0.138 -5.545,-0.603 l -31.71,-0.305 c -4.219,0.037 -7.669,-3.354 -7.705,-7.573 -0.037,-4.219 3.353,-7.669 7.573,-7.706 l 28.893,0.278 c 0.864,-0.87 1.914,-1.586 3.121,-2.079 4.324,-1.768 9.192,-0.086 11.574,3.758 l 2.607,0.232 4.676,-0.913 c 1.623,-0.317 3.195,0.742 3.512,2.365 0.317,1.623 -0.741,3.194 -2.364,3.511 l -3.758,0.734 c -0.552,0.388 -0.089,0.601 -0.81,0.563 l 0.125,0.393 C -0.403,-0.216 -0.196,-0.115 0,0" />
          </g>
          <g
             transform="translate(143.0283,125.458)"
             id="g1505">
            <path
               inkscape:connector-curvature="0"
               id="path1507"
               style="fill:none;stroke:#49052e;stroke-width:1.07099998;stroke-linecap:round;stroke-linejoin:miter;stroke-miterlimit:10;stroke-dasharray:none;stroke-opacity:1"
               d="M 0,0 3.559,-0.536 C 5.041,-0.759 6.424,0.262 6.646,1.744 6.87,3.227 5.85,4.608 4.367,4.832 L 0.322,5.44 C 0.306,6.529 -0.489,7.479 -1.601,7.646 L -6.037,8.313 C -6.436,8.374 -6.822,8.316 -7.174,8.183 -7.205,8.175 -7.236,8.174 -7.268,8.164 l -3.551,-1.105 c -1.904,0.371 -3.833,0.138 -5.545,-0.603 l -31.71,-0.305 c -4.219,0.037 -7.669,-3.354 -7.705,-7.573 -0.037,-4.219 3.353,-7.669 7.573,-7.706 l 28.893,0.278 c 0.864,-0.87 1.914,-1.586 3.121,-2.079 4.324,-1.768 9.192,-0.086 11.574,3.758 l 2.607,0.232 4.676,-0.913 c 1.623,-0.317 3.195,0.742 3.512,2.365 0.317,1.623 -0.741,3.194 -2.364,3.511 l -3.758,0.734 c -0.552,0.388 -0.089,0.601 -0.81,0.563 l 0.125,0.393 C -0.403,-0.216 -0.196,-0.115 0,0 Z" />
          </g>
          <g
             transform="translate(130.2187,197.3867)"
             id="g1509">
            <path
               inkscape:connector-curvature="0"
               id="path1511"
               style="fill:#49052e;fill-opacity:1;fill-rule:nonzero;stroke:none"
               d="m 0,0 c -0.931,-6.094 1.907,-11.581 6.339,-12.259 4.431,-0.677 8.777,3.714 9.709,9.807 C 16.979,3.641 14.141,9.129 9.71,9.806 5.278,10.483 0.932,6.093 0,0" />
          </g>
          <g
             transform="translate(104.8213,201.7803)"
             id="g1513">
            <path
               inkscape:connector-curvature="0"
               id="path1515"
               style="fill:#75154b;fill-opacity:1;fill-rule:nonzero;stroke:none"
               d="m 0,0 c -1.126,-7.367 4.183,-19.187 8.614,-19.863 4.432,-0.677 3.51,10.544 4.635,17.91 1.126,7.367 1.243,13.389 -3.187,14.066 C 5.63,12.79 1.126,7.366 0,0" />
          </g>
          <g
             transform="translate(143.7852,183.7012)"
             id="g1517">
            <path
               inkscape:connector-curvature="0"
               id="path1519"
               style="fill:#eaf4fe;fill-opacity:1;fill-rule:nonzero;stroke:none"
               d="m 0,0 0.167,9.761 c 0.141,8.196 -6.39,14.954 -14.586,15.094 l -0.807,0.015 C -23.422,25.011 -30.18,18.48 -30.32,10.284 l -0.168,-9.761 c -0.029,-1.689 0.239,-3.311 0.733,-4.833 l -2.856,-5.947 c -1.811,-3.768 -0.224,-8.29 3.544,-10.099 3.768,-1.811 8.29,-0.224 10.099,3.544 l 1.158,2.41 c 0.625,-0.091 1.259,-0.159 1.908,-0.169 l 0.806,-0.014 C -6.899,-14.726 -0.142,-8.195 0,0" />
          </g>
          <g
             transform="translate(143.7852,183.7012)"
             id="g1521">
            <path
               inkscape:connector-curvature="0"
               id="path1523"
               style="fill:none;stroke:#49052e;stroke-width:1.07099998;stroke-linecap:butt;stroke-linejoin:miter;stroke-miterlimit:10;stroke-dasharray:none;stroke-opacity:1"
               d="m 0,0 0.167,9.761 c 0.141,8.196 -6.39,14.954 -14.586,15.094 l -0.807,0.015 C -23.422,25.011 -30.18,18.48 -30.32,10.284 l -0.168,-9.761 c -0.029,-1.689 0.239,-3.311 0.733,-4.833 l -2.856,-5.947 c -1.811,-3.768 -0.224,-8.29 3.544,-10.099 3.768,-1.811 8.29,-0.224 10.099,3.544 l 1.158,2.41 c 0.625,-0.091 1.259,-0.159 1.908,-0.169 l 0.806,-0.014 C -6.899,-14.726 -0.142,-8.195 0,0 Z" />
          </g>
          <g
             transform="translate(122.127,170.3955)"
             id="g1525">
            <path
               inkscape:connector-curvature="0"
               id="path1527"
               style="fill:#eaf4fe;fill-opacity:1;fill-rule:nonzero;stroke:#49052e;stroke-width:1.07099998;stroke-linecap:round;stroke-linejoin:miter;stroke-miterlimit:10;stroke-dasharray:none;stroke-opacity:1"
               d="M 0,0 C 1.763,-0.782 3.707,-1.23 5.756,-1.266 L 5.958,-1.27 6.159,-1.272 6.361,-1.276 6.562,-1.279 c 2.049,-0.035 4.008,0.345 5.797,1.066 1.788,0.721 3.406,1.78 4.772,3.1 1.366,1.32 2.48,2.9 3.262,4.663 0.781,1.763 1.23,3.707 1.265,5.756 l 0.041,2.44 0.042,2.441 0.042,2.439 0.042,2.44 c 0.035,2.049 -0.346,4.008 -1.067,5.797 -0.72,1.788 -1.779,3.406 -3.1,4.772 -1.319,1.366 -2.899,2.479 -4.662,3.261 -1.763,0.782 -3.708,1.23 -5.757,1.265 L 7.038,38.165 6.836,38.168 6.635,38.172 6.433,38.176 C 4.384,38.211 2.425,37.829 0.637,37.108 -1.152,36.388 -2.77,35.328 -4.136,34.009 -5.501,32.689 -6.615,31.108 -7.396,29.346 -8.179,27.583 -8.627,25.639 -8.662,23.59 L -8.704,21.149 -8.746,18.709 -8.788,16.27 -8.83,13.829 C -8.865,11.78 -8.483,9.821 -7.763,8.032" />
          </g>
          <g
             transform="translate(116.2227,211.0732)"
             id="g1529">
            <path
               inkscape:connector-curvature="0"
               id="path1531"
               style="fill:#75154b;fill-opacity:1;fill-rule:nonzero;stroke:none"
               d="m 0,0 c -0.521,-4.747 4.333,-9.173 10.84,-9.886 6.508,-0.712 12.204,2.559 12.723,7.306 0.52,4.747 -4.334,9.173 -10.84,9.886 C 6.216,8.019 0.52,4.748 0,0" />
          </g>
          <g
             transform="translate(120.4961,197.2695)"
             id="g1533">
            <path
               inkscape:connector-curvature="0"
               id="path1535"
               style="fill:#49052e;fill-opacity:1;fill-rule:nonzero;stroke:none"
               d="m 0,0 c -0.094,-4.005 -2.592,-7.194 -5.579,-7.124 -2.988,0.07 -5.334,3.372 -5.24,7.377 0.093,4.004 2.591,7.193 5.579,7.123 C -2.252,7.307 0.094,4.004 0,0" />
          </g>
          <g
             transform="translate(118.5127,188.6787)"
             id="g1537">
            <path
               inkscape:connector-curvature="0"
               id="path1539"
               style="fill:#eaf4fe;fill-opacity:1;fill-rule:nonzero;stroke:#49052e;stroke-width:1.07099998;stroke-linecap:round;stroke-linejoin:miter;stroke-miterlimit:10;stroke-dasharray:none;stroke-opacity:1"
               d="M 0,0 C 0.228,2.386 -1.523,4.504 -3.91,4.729 -6.434,4.97 -8.675,3.12 -8.915,0.596 c -0.241,-2.524 1.609,-4.764 4.133,-5.005" />
          </g>
          <g
             transform="translate(139.8916,188.3574)"
             id="g1541">
            <path
               inkscape:connector-curvature="0"
               id="path1543"
               style="fill:#49052e;fill-opacity:1;fill-rule:nonzero;stroke:none"
               d="m 0,0 c -0.092,-0.737 0.256,-1.388 0.776,-1.453 0.521,-0.065 1.018,0.48 1.11,1.219 C 1.978,0.503 1.63,1.153 1.109,1.218 0.589,1.283 0.092,0.737 0,0" />
          </g>
          <g
             transform="translate(142.2783,193.0107)"
             id="g1545">
            <path
               inkscape:connector-curvature="0"
               id="path1547"
               style="fill:none;stroke:#49052e;stroke-width:1.13600004;stroke-linecap:round;stroke-linejoin:miter;stroke-miterlimit:10;stroke-dasharray:none;stroke-opacity:1"
               d="M 0,0 C -0.526,0.385 -1.33,0.717 -2.596,0.842" />
          </g>
          <g
             transform="translate(130.8525,188.8359)"
             id="g1549">
            <path
               inkscape:connector-curvature="0"
               id="path1551"
               style="fill:#49052e;fill-opacity:1;fill-rule:nonzero;stroke:none"
               d="m 0,0 c -0.092,-0.738 0.256,-1.389 0.776,-1.453 0.522,-0.066 1.018,0.48 1.11,1.218 C 1.978,0.502 1.63,1.152 1.109,1.218 0.589,1.282 0.093,0.737 0,0" />
          </g>
          <g
             transform="translate(128.8379,195.0117)"
             id="g1553">
            <path
               inkscape:connector-curvature="0"
               id="path1555"
               style="fill:none;stroke:#49052e;stroke-width:1.13600004;stroke-linecap:round;stroke-linejoin:miter;stroke-miterlimit:10;stroke-dasharray:none;stroke-opacity:1"
               d="M 0,0 C 0.632,0.225 1.5,0.359 2.692,0.146" />
          </g>
          <g
             transform="translate(131.8428,184.1475)"
             id="g1557">
            <path
               inkscape:connector-curvature="0"
               id="path1559"
               style="fill:none;stroke:#49052e;stroke-width:1.13600004;stroke-linecap:round;stroke-linejoin:miter;stroke-miterlimit:10;stroke-dasharray:none;stroke-opacity:1"
               d="m 0,0 c -0.406,-2.274 1.108,-4.448 3.384,-4.854 2.274,-0.407 4.448,1.109 4.854,3.383" />
          </g>
          <g
             transform="translate(186.958,114.5225)"
             id="g1561">
            <path
               inkscape:connector-curvature="0"
               id="path1563"
               style="fill:#eaf4fe;fill-opacity:1;fill-rule:nonzero;stroke:none"
               d="m 0,0 -73.04,-5.015 c -2.578,-0.176 -4.813,1.77 -4.989,4.349 -0.177,2.578 1.769,4.812 4.348,4.989 l 73.04,5.014 C 1.937,9.515 4.172,7.567 4.349,4.989 4.525,2.41 2.579,0.177 0,0" />
          </g>
          <g
             transform="translate(186.958,114.5225)"
             id="g1565">
            <path
               inkscape:connector-curvature="0"
               id="path1567"
               style="fill:none;stroke:#49052e;stroke-width:1.07099998;stroke-linecap:butt;stroke-linejoin:miter;stroke-miterlimit:10;stroke-dasharray:none;stroke-opacity:1"
               d="m 0,0 -73.04,-5.015 c -2.578,-0.176 -4.813,1.77 -4.989,4.349 -0.177,2.578 1.769,4.812 4.348,4.989 l 73.04,5.014 C 1.937,9.515 4.172,7.567 4.349,4.989 4.525,2.41 2.579,0.177 0,0 Z" />
          </g>
          <g
             transform="translate(186.958,114.5225)"
             id="g1569">
            <path
               inkscape:connector-curvature="0"
               id="path1571"
               style="fill:#eaf4fe;fill-opacity:1;fill-rule:nonzero;stroke:none"
               d="m 0,0 -47.812,-3.283 c -2.578,-0.177 -4.812,1.77 -4.989,4.348 -0.177,2.58 1.77,4.813 4.349,4.99 L -0.641,9.337 C 1.937,9.515 4.172,7.567 4.349,4.989 4.525,2.41 2.579,0.177 0,0" />
          </g>
          <g
             transform="translate(186.958,114.5225)"
             id="g1573">
            <path
               inkscape:connector-curvature="0"
               id="path1575"
               style="fill:none;stroke:#49052e;stroke-width:1.07099998;stroke-linecap:butt;stroke-linejoin:miter;stroke-miterlimit:10;stroke-dasharray:none;stroke-opacity:1"
               d="m 0,0 -47.812,-3.283 c -2.578,-0.177 -4.812,1.77 -4.989,4.348 -0.177,2.58 1.77,4.813 4.349,4.99 L -0.641,9.337 C 1.937,9.515 4.172,7.567 4.349,4.989 4.525,2.41 2.579,0.177 0,0 Z" />
          </g>
          <g
             transform="translate(128.6719,114.1074)"
             id="g1577">
            <path
               inkscape:connector-curvature="0"
               id="path1579"
               style="fill:#49052e;fill-opacity:1;fill-rule:nonzero;stroke:none"
               d="m 0,0 -11.253,-0.772 c -0.607,-0.042 -1.133,0.417 -1.175,1.023 -0.042,0.606 0.416,1.133 1.024,1.175 L -0.151,2.198 C 0.455,2.239 0.981,1.781 1.023,1.175 1.064,0.567 0.606,0.042 0,0" />
          </g>
          <g
             transform="translate(186.2266,121.7598)"
             id="g1581">
            <path
               inkscape:connector-curvature="0"
               id="path1583"
               style="fill:#eaf4fe;fill-opacity:1;fill-rule:nonzero;stroke:none"
               d="m 0,0 -39.72,-2.728 c -6.091,-0.418 -10.611,5.354 -8.582,10.957 l 12.331,34.045 c 1.13,3.12 4.061,5.292 7.451,5.525 l 39.72,2.726 c 6.091,0.418 10.612,-5.352 8.582,-10.956 L 7.451,5.524 C 6.321,2.405 3.392,0.232 0,0" />
          </g>
          <g
             transform="translate(186.2266,121.7598)"
             id="g1585">
            <path
               inkscape:connector-curvature="0"
               id="path1587"
               style="fill:none;stroke:#49052e;stroke-width:1.07099998;stroke-linecap:butt;stroke-linejoin:miter;stroke-miterlimit:10;stroke-dasharray:none;stroke-opacity:1"
               d="m 0,0 -39.72,-2.728 c -6.091,-0.418 -10.611,5.354 -8.582,10.957 l 12.331,34.045 c 1.13,3.12 4.061,5.292 7.451,5.525 l 39.72,2.726 c 6.091,0.418 10.612,-5.352 8.582,-10.956 L 7.451,5.524 C 6.321,2.405 3.392,0.232 0,0 Z" />
          </g>
          <g
             transform="translate(143.0732,130.3418)"
             id="g1589">
            <path
               inkscape:connector-curvature="0"
               id="path1591"
               style="fill:#eaf4fe;fill-opacity:1;fill-rule:nonzero;stroke:#49052e;stroke-width:1.07099998;stroke-linecap:round;stroke-linejoin:miter;stroke-miterlimit:10;stroke-dasharray:none;stroke-opacity:1"
               d="m 0,0 12.331,34.046 c 1.13,3.119 4.061,5.292 7.451,5.524 l 39.72,2.727 c 6.091,0.418 10.612,-5.353 8.582,-10.956 L 55.753,-2.704 c -1.13,-3.119 -4.06,-5.292 -7.45,-5.525 L 8.582,-10.955" />
          </g>
          <g
             transform="translate(176.8809,117.4111)"
             id="g1593">
            <path
               inkscape:connector-curvature="0"
               id="path1595"
               style="fill:#49052e;fill-opacity:1;fill-rule:nonzero;stroke:none"
               d="m 0,0 c 0.052,-0.76 -0.54,-1.419 -1.322,-1.473 -0.782,-0.053 -1.458,0.519 -1.51,1.279 -0.053,0.759 0.539,1.419 1.321,1.472 C -0.729,1.332 -0.053,0.76 0,0" />
          </g>
        </g>
      </g>
      <g
         transform="matrix(0.17776493,0,0,-0.17776493,76.638064,61.933569)"
         id="g1605">
        <path
           inkscape:connector-curvature="0"
           id="path1607"
           style="fill:#75154b;fill-opacity:1;fill-rule:nonzero;stroke:none"
           d="m 0,0 c -7.559,0.904 -18.282,-3.851 -23.579,-9.73 -2.016,0.81 -4.285,1.272 -6.623,1.241 -6.765,-0.088 -11.492,-4.19 -10.559,-9.16 0.933,-4.971 7.173,-8.93 13.938,-8.841 1.687,0.022 3.247,0.294 4.624,0.766 3.666,-3.318 9.019,-5.73 14.226,-6.354 9.86,-1.179 15.455,4.5 17.007,12.518 C 10.586,-11.541 9.859,-1.18 0,0" />
      </g>
      <g
         transform="matrix(0.17776493,0,0,-0.17776493,72.691806,66.506323)"
         id="g1609">
        <path
           inkscape:connector-curvature="0"
           id="path1611"
           style="fill:#49052e;fill-opacity:1;fill-rule:nonzero;stroke:none"
           d="m 0,0 c 3.666,-3.318 9.02,-5.73 14.227,-6.354 9.542,-1.141 15.079,4.149 16.833,11.758 -1.187,3.852 -3.831,6.849 -8.861,7.45 C 14.641,13.759 3.917,9.004 -1.38,3.123 -3.396,3.935 -5.665,4.396 -8.003,4.365 -10.698,4.33 -13.06,3.65 -14.879,2.54 -12.244,0.481 -8.524,-0.817 -4.624,-0.767 -2.937,-0.744 -1.377,-0.473 0,0" />
      </g>
      <g
         transform="matrix(0.17776493,0,0,-0.17776493,84.048977,82.044436)"
         id="g1613">
        <path
           inkscape:connector-curvature="0"
           id="path1615"
           style="fill:#eaf4fe;fill-opacity:1;fill-rule:nonzero;stroke:none"
           d="m 0,0 -73.04,-5.015 c -2.578,-0.176 -4.813,1.77 -4.989,4.349 -0.177,2.578 1.769,4.812 4.348,4.989 l 73.04,5.014 C 1.937,9.515 4.172,7.567 4.349,4.989 4.525,2.41 2.579,0.177 0,0" />
      </g>
      <g
         transform="matrix(0.17776493,0,0,-0.17776493,84.048977,82.044436)"
         id="g1617">
        <path
           inkscape:connector-curvature="0"
           id="path1619"
           style="fill:none;stroke:#49052e;stroke-width:1.07099998;stroke-linecap:butt;stroke-linejoin:miter;stroke-miterlimit:10;stroke-dasharray:none;stroke-opacity:1"
           d="m 0,0 -73.04,-5.015 c -2.578,-0.176 -4.813,1.77 -4.989,4.349 -0.177,2.578 1.769,4.812 4.348,4.989 l 73.04,5.014 C 1.937,9.515 4.172,7.567 4.349,4.989 4.525,2.41 2.579,0.177 0,0 Z" />
      </g>
      <g
         transform="matrix(0.17776493,0,0,-0.17776493,84.048977,82.044436)"
         id="g1621">
        <path
           inkscape:connector-curvature="0"
           id="path1623"
           style="fill:#eaf4fe;fill-opacity:1;fill-rule:nonzero;stroke:none"
           d="m 0,0 -47.812,-3.283 c -2.578,-0.177 -4.812,1.77 -4.989,4.348 -0.177,2.58 1.77,4.813 4.349,4.99 L -0.641,9.337 C 1.937,9.515 4.172,7.567 4.349,4.989 4.525,2.41 2.579,0.177 0,0" />
      </g>
      <g
         transform="matrix(0.17776493,0,0,-0.17776493,84.048977,82.044436)"
         id="g1625">
        <path
           inkscape:connector-curvature="0"
           id="path1627"
           style="fill:none;stroke:#49052e;stroke-width:1.07099998;stroke-linecap:butt;stroke-linejoin:miter;stroke-miterlimit:10;stroke-dasharray:none;stroke-opacity:1"
           d="m 0,0 -47.812,-3.283 c -2.578,-0.177 -4.812,1.77 -4.989,4.348 -0.177,2.58 1.77,4.813 4.349,4.99 L -0.641,9.337 C 1.937,9.515 4.172,7.567 4.349,4.989 4.525,2.41 2.579,0.177 0,0 Z" />
      </g>
      <g
         transform="matrix(0.17776493,0,0,-0.17776493,73.687752,82.118226)"
         id="g1629">
        <path
           inkscape:connector-curvature="0"
           id="path1631"
           style="fill:#49052e;fill-opacity:1;fill-rule:nonzero;stroke:none"
           d="m 0,0 -11.253,-0.772 c -0.607,-0.042 -1.133,0.417 -1.175,1.023 -0.042,0.606 0.416,1.133 1.024,1.175 L -0.151,2.198 C 0.455,2.239 0.981,1.781 1.023,1.175 1.064,0.567 0.606,0.042 0,0" />
      </g>
      <g
         transform="matrix(0.17776493,0,0,-0.17776493,83.91896,80.757898)"
         id="g1633">
        <path
           inkscape:connector-curvature="0"
           id="path1635"
           style="fill:#eaf4fe;fill-opacity:1;fill-rule:nonzero;stroke:none"
           d="m 0,0 -39.72,-2.728 c -6.091,-0.418 -10.611,5.354 -8.582,10.957 l 12.331,34.045 c 1.13,3.12 4.061,5.292 7.451,5.525 l 39.72,2.726 c 6.091,0.418 10.612,-5.352 8.582,-10.956 L 7.451,5.524 C 6.321,2.405 3.392,0.232 0,0" />
      </g>
      <g
         transform="matrix(0.17776493,0,0,-0.17776493,83.91896,80.757898)"
         id="g1637">
        <path
           inkscape:connector-curvature="0"
           id="path1639"
           style="fill:none;stroke:#49052e;stroke-width:1.07099998;stroke-linecap:butt;stroke-linejoin:miter;stroke-miterlimit:10;stroke-dasharray:none;stroke-opacity:1"
           d="m 0,0 -39.72,-2.728 c -6.091,-0.418 -10.611,5.354 -8.582,10.957 l 12.331,34.045 c 1.13,3.12 4.061,5.292 7.451,5.525 l 39.72,2.726 c 6.091,0.418 10.612,-5.352 8.582,-10.956 L 7.451,5.524 C 6.321,2.405 3.392,0.232 0,0 Z" />
      </g>
      <g
         transform="matrix(0.17776493,0,0,-0.17776493,76.247798,79.232319)"
         id="g1641">
        <path
           inkscape:connector-curvature="0"
           id="path1643"
           style="fill:#eaf4fe;fill-opacity:1;fill-rule:nonzero;stroke:#49052e;stroke-width:1.07099998;stroke-linecap:round;stroke-linejoin:miter;stroke-miterlimit:10;stroke-dasharray:none;stroke-opacity:1"
           d="m 0,0 12.331,34.046 c 1.13,3.119 4.061,5.292 7.451,5.524 l 39.72,2.727 c 6.091,0.418 10.612,-5.353 8.582,-10.956 L 55.753,-2.704 c -1.13,-3.119 -4.06,-5.292 -7.45,-5.525 L 8.582,-10.955" />
      </g>
      <g
         transform="matrix(0.17776493,0,0,-0.17776493,82.257622,81.530944)"
         id="g1645">
        <path
           inkscape:connector-curvature="0"
           id="path1647"
           style="fill:#49052e;fill-opacity:1;fill-rule:nonzero;stroke:none"
           d="m 0,0 c 0.052,-0.76 -0.54,-1.419 -1.322,-1.473 -0.782,-0.053 -1.458,0.519 -1.51,1.279 -0.053,0.759 0.539,1.419 1.321,1.472 C -0.729,1.332 -0.053,0.76 0,0" />
      </g>
    </g>
    <path
       id="path3243"
       d="m 68.817325,282.79207 c 0.124102,0.2142 0.164775,0.45792 0.178186,0.73195 l 0.01771,0.3652 v 2.55358 l 0.01791,0.36564 c 0.03611,0.597 0.476308,1.03846 1.077941,1.07603 l 0.363659,0.0181 v -4.01327 l 0.01791,-0.3652 c 0.01486,-0.27091 0.0552,-0.51923 0.181257,-0.73496 a 1.458464,1.458464 0 0 1 2.525289,0.003 c 0.124103,0.21421 0.162866,0.46253 0.17781,0.73038 l 0.01791,0.36404 v 2.5548 l 0.01791,0.36559 c 0.03749,0.60008 0.474401,1.04154 1.077948,1.07602 l 0.363646,0.0181 v -4.37846 a 2.9199937,2.9199937 0 0 0 -2.918831,-2.91994 2.9123295,2.9123295 0 0 0 -2.189991,0.98903 2.9161618,2.9161618 0 0 0 -2.190001,-0.98943 c -0.606222,0 -1.168764,0.18394 -1.634732,0.50161 -0.284332,-0.31727 -0.920451,-0.50161 -1.285646,-0.50161 v 7.29884 l 0.365195,-0.0181 c 0.610831,-0.0411 1.052278,-0.46979 1.076031,-1.07602 l 0.01958,-0.36559 v -2.55365 l 0.01791,-0.36519 c 0.01535,-0.27552 0.05353,-0.5177 0.178187,-0.73345 a 1.4622959,1.4622959 0 0 1 1.263415,-0.72732 1.4599968,1.4599968 0 0 1 1.263411,0.72888 z m -24.985876,5.09275 0.365192,0.0179 h 5.474028 l -0.01791,-0.36403 c -0.0493,-0.6001 -0.474382,-1.03847 -1.076394,-1.07758 l -0.3652,-0.0182 h -3.28404 l 4.378457,-4.37997 -0.01791,-0.36365 c -0.02834,-0.60624 -0.471341,-1.04424 -1.076423,-1.07758 l -0.365193,-0.0171 -5.474016,-10e-4 0.01791,0.3652 c 0.04792,0.59429 0.479003,1.04188 1.076026,1.07639 l 0.365569,0.0181 h 3.284037 l -4.378457,4.37997 0.01791,0.36519 c 0.03611,0.60166 0.470196,1.03731 1.07642,1.07603 z m 19.369291,-6.21283 a 3.6492256,3.6492256 0 0 1 0,5.16129 3.6519081,3.6519081 0 0 1 -5.162488,0 c -1.425119,-1.42508 -1.425119,-3.7362 0,-5.16129 a 3.6473097,3.6473097 0 0 1 2.578945,-1.06878 3.6499918,3.6499918 0 0 1 2.583543,1.06912 z m -1.032726,1.03342 a 2.1907616,2.1907616 0 0 1 0,3.0971 2.1907616,2.1907616 0 0 1 -3.097041,0 2.1907616,2.1907616 0 0 1 0,-3.0971 2.1907616,2.1907616 0 0 1 3.097041,0 z m -9.210235,-2.1022 a 3.6473097,3.6473097 0 0 1 2.578931,1.06912 c 1.425506,1.42475 1.425506,3.73621 0,5.16095 a 3.6519081,3.6519081 0 0 1 -5.162489,0 c -1.425117,-1.42508 -1.425117,-3.7362 0,-5.16129 a 3.6473097,3.6473097 0 0 1 2.578947,-1.06878 z m 1.546206,2.10148 a 2.1907616,2.1907616 0 0 1 0,3.0974 2.1907616,2.1907616 0 0 1 -3.097024,0 2.1907616,2.1907616 0 0 1 0,-3.09697 2.1907616,2.1907616 0 0 1 3.097024,0 z"
       inkscape:connector-curvature="0"
       style="fill:#2d8cff;fill-rule:evenodd;stroke-width:0.38320121" />
    <g
       id="g3511"
       transform="matrix(0.02922203,0,0,0.02922203,70.181227,269.91826)">
      <g
         id="g3429">
	<defs
   id="defs3420">
		<circle
   r="261.89999"
   cy="30.1"
   cx="-395.89999"
   id="circle3479" />

	</defs>

	<clipPath
   id="SVGID_2_">
		<use
   id="use3422"
   style="overflow:visible"
   xlink:href="#SVGID_1_"
   x="0"
   y="0"
   width="100%"
   height="100%" />

	</clipPath>

	<g
   id="g3427"
   clip-path="url(#SVGID_2_)"
   class="st0">
		<path
   id="path3425"
   d="m -670.7,-244.7 h 549.5 v 549.5 h -549.5 z"
   class="st1"
   inkscape:connector-curvature="0"
   style="fill:#e5e5e4" />

	</g>

</g>
      <g
         id="g3441">
	<defs
   id="defs3432">
		<circle
   r="256.79999"
   cy="30.1"
   cx="-395.89999"
   id="circle3487" />

	</defs>

	<clipPath
   id="SVGID_4_">
		<use
   id="use3434"
   style="overflow:visible"
   xlink:href="#SVGID_3_"
   x="0"
   y="0"
   width="100%"
   height="100%" />

	</clipPath>

	<g
   id="g3439"
   clip-path="url(#SVGID_4_)"
   class="st2">
		<path
   id="path3437"
   d="m -665.5,-239.5 h 539.3 v 539.3 h -539.3 z"
   class="st3"
   inkscape:connector-curvature="0"
   style="fill:#ffffff" />

	</g>

</g>
      <g
         id="g3453">
	<defs
   id="defs3444">
		<circle
   r="236.2"
   cy="30.1"
   cx="-395.89999"
   id="circle3495" />

	</defs>

	<clipPath
   id="SVGID_6_">
		<use
   id="use3446"
   style="overflow:visible"
   xlink:href="#SVGID_5_"
   x="0"
   y="0"
   width="100%"
   height="100%" />

	</clipPath>

	<g
   id="g3451"
   clip-path="url(#SVGID_6_)"
   class="st4">
		<path
   id="path3449"
   d="m -645,-219 h 498.2 V 279.2 H -645 Z"
   class="st5"
   inkscape:connector-curvature="0"
   style="fill:#4a8cff" />

	</g>

</g>
      <g
         id="g3465">
	<defs
   id="defs3456">
		<path
   d="m -324,-0.6 66.8,-48.8 c 5.8,-4.8 10.3,-3.6 10.3,5.1 v 148.8 c 0,9.9 -5.5,8.7 -10.3,5.1 L -324,60.9 Z m -226,-43.3 v 111 c 0.1,25.1 20.6,45.3 45.6,45.2 h 161.8 c 4.6,0 8.3,-3.7 8.3,-8.2 v -111 c -0.1,-25.1 -20.6,-45.3 -45.6,-45.2 h -161.8 c -4.6,0 -8.3,3.7 -8.3,8.2 z"
   id="path3503"
   inkscape:connector-curvature="0" />

	</defs>

	<clipPath
   id="SVGID_8_">
		<use
   id="use3458"
   style="overflow:visible"
   xlink:href="#SVGID_7_"
   x="0"
   y="0"
   width="100%"
   height="100%" />

	</clipPath>

	<g
   id="g3463"
   clip-path="url(#SVGID_8_)"
   class="st6">
		<path
   id="path3461"
   d="m -562.8,-64.9 h 328.7 v 190 h -328.7 z"
   class="st3"
   inkscape:connector-curvature="0"
   style="fill:#ffffff" />

	</g>

</g>
    </g>
  </g>
  <style
     id="style3417"
     type="text/css">
	.st0{clip-path:url(#SVGID_2_);}
	.st1{fill:#E5E5E4;}
	.st2{clip-path:url(#SVGID_4_);}
	.st3{fill:#FFFFFF;}
	.st4{clip-path:url(#SVGID_6_);}
	.st5{fill:#4A8CFF;}
	.st6{clip-path:url(#SVGID_8_);}
</style>
</svg>
