<?xml version="1.0" encoding="UTF-8" standalone="no"?>
<svg
   xmlns:dc="http://purl.org/dc/elements/1.1/"
   xmlns:cc="http://creativecommons.org/ns#"
   xmlns:rdf="http://www.w3.org/1999/02/22-rdf-syntax-ns#"
   xmlns:svg="http://www.w3.org/2000/svg"
   xmlns="http://www.w3.org/2000/svg"
   xmlns:sodipodi="http://sodipodi.sourceforge.net/DTD/sodipodi-0.dtd"
   xmlns:inkscape="http://www.inkscape.org/namespaces/inkscape"
   id="Layer_1"
   enable-background="new 0 0 512 512"
   height="512"
   viewBox="0 0 512 512"
   width="512"
   version="1.1"
   sodipodi:docname="ssd.svg"
   inkscape:version="0.92.5 (0.92.5+68)">
  <metadata
     id="metadata969">
    <rdf:RDF>
      <cc:Work
         rdf:about="">
        <dc:format>image/svg+xml</dc:format>
        <dc:type
           rdf:resource="http://purl.org/dc/dcmitype/StillImage" />
        <dc:title></dc:title>
      </cc:Work>
    </rdf:RDF>
  </metadata>
  <defs
     id="defs967" />
  <sodipodi:namedview
     pagecolor="#ffffff"
     bordercolor="#666666"
     borderopacity="1"
     objecttolerance="10"
     gridtolerance="10"
     guidetolerance="10"
     inkscape:pageopacity="0"
     inkscape:pageshadow="2"
     inkscape:window-width="1920"
     inkscape:window-height="1016"
     id="namedview965"
     showgrid="false"
     inkscape:zoom="0.54206915"
     inkscape:cx="618.2325"
     inkscape:cy="116.78656"
     inkscape:window-x="0"
     inkscape:window-y="27"
     inkscape:window-maximized="1"
     inkscape:current-layer="Layer_1" />
  <g
     id="g981"
     inkscape:export-xdpi="24.000002"
     inkscape:export-ydpi="24.000002">
    <rect
       y="0"
       x="-2.8421709e-14"
       height="512"
       width="512"
       id="rect949"
       style="opacity:0;fill:#ece2e2;fill-opacity:1;stroke:none;stroke-width:2.57777786;stroke-linecap:round;stroke-linejoin:miter;stroke-miterlimit:4;stroke-dasharray:2.57777775, 5.15555553;stroke-dashoffset:0;stroke-opacity:1;paint-order:stroke fill markers" />
    <g
       transform="matrix(0.9140625,0,0,0.9140625,22,22)"
       id="g945">
      <path
         style="fill:#aaaaaa"
         inkscape:connector-curvature="0"
         d="m 480,48 v 416 c 0,26.47 -21.53,48 -48,48 H 80 C 53.53,512 32,490.47 32,464 V 48 C 32,21.53 53.53,0 80,0 h 352 c 26.47,0 48,21.53 48,48 z"
         id="path932" />
      <path
         style="fill:#999999"
         inkscape:connector-curvature="0"
         d="M 400,512 H 112 c 4.42,-40.299 0.916,-21.624 16.48,-83.88 C 130.26,421 136.66,416 144,416 h 224 c 7.34,0 13.74,5 15.52,12.12 15.567,62.266 12.06,43.586 16.48,83.88 z"
         id="path934" />
      <path
         style="fill:#efd66c"
         inkscape:connector-curvature="0"
         d="m 336,480 v 32 h -32 v -32 c 0,-8.84 7.16,-16 16,-16 8.84,0 16,7.16 16,16 z"
         id="path936" />
      <path
         style="fill:#efd66c"
         inkscape:connector-curvature="0"
         d="m 272,480 v 32 h -32 v -32 c 0,-8.84 7.16,-16 16,-16 8.84,0 16,7.16 16,16 z"
         id="path938" />
      <path
         style="fill:#efd66c"
         inkscape:connector-curvature="0"
         d="m 208,480 v 32 h -32 v -32 c 0,-8.84 7.16,-16 16,-16 8.84,0 16,7.16 16,16 z"
         id="path940" />
      <path
         style="fill:#b2b2b2"
         inkscape:connector-curvature="0"
         d="M 480,48 V 176 C 480,299.71 379.71,400 256,400 132.294,400 32,299.721 32,176 V 48 C 32,21.53 53.53,0 80,0 h 352 c 26.47,0 48,21.53 48,48 z"
         id="path942" />
      <path
         style="fill:#999999"
         inkscape:connector-curvature="0"
         d="m 352,0 v 48 c 0,26.47 -21.53,48 -48,48 H 208 C 181.53,96 160,74.47 160,48 V 0 Z"
         id="path944" />
      <circle
         cx="427.77261"
         cy="411.86911"
         r="16"
         id="circle946"
         style="fill:#999999" />
      <g
         id="g1123"
         transform="matrix(0.43631629,0,0,0.43631629,147.0702,-53.703684)">
        <path
           id="path948"
           d="m 152,288 h -24 c -8.836,0 -16,-7.164 -16,-16 0,-8.836 7.164,-16 16,-16 h 24 c 4.411,0 8,-3.589 8,-8 0,-4.411 -3.589,-8 -8,-8 -22.056,0 -40,-17.944 -40,-40 0,-22.056 17.944,-40 40,-40 h 24 c 8.836,0 16,7.164 16,16 0,8.836 -7.164,16 -16,16 h -24 c -4.411,0 -8,3.589 -8,8 0,4.411 3.589,8 8,8 8.087,0 14.308,-0.926 19.911,5.317 C 183.907,220.23 192,233.188 192,248 c 0,22.056 -17.944,40 -40,40 z"
           inkscape:connector-curvature="0"
           style="fill:#ece2e2" />
        <path
           id="path950"
           d="m 256,288 h -31 c -8.836,0 -16,-7.164 -16,-16 0,-8.836 7.164,-16 16,-16 h 31 c 4.411,0 8,-3.589 8,-8 0,-4.411 -3.589,-8 -8,-8 -8.568,0 -8.578,0.031 -9.723,-0.092 C 225.487,238.503 209,221.141 209,200 c 0,-22.056 17.944,-40 40,-40 h 31 c 8.836,0 16,7.164 16,16 0,8.836 -7.164,16 -16,16 h -31 c -4.411,0 -8,3.589 -8,8 0,4.411 3.589,8 8,8 h 7 c 22.056,0 40,17.944 40,40 0,22.056 -17.944,40 -40,40 z"
           inkscape:connector-curvature="0"
           style="fill:#ece2e2" />
        <path
           id="path952"
           d="m 352,288 h -16 c -8.836,0 -16,-7.164 -16,-16 v -96 c 0,-8.836 7.164,-16 16,-16 h 16 c 26.467,0 48,21.533 48,48 v 32 c 0,26.467 -21.533,48 -48,48 z m 0,-32 h 0.01 z m 0,-64 v 64 c 8.822,0 16,-7.178 16,-16 v -32 c 0,-8.822 -7.178,-16 -16,-16 z"
           inkscape:connector-curvature="0"
           style="fill:#ece2e2" />
      </g>
      <g
         style="fill:#999999"
         id="g962">
        <circle
           cx="80"
           cy="416"
           r="16"
           id="circle954" />
        <circle
           cx="432"
           cy="48"
           r="16"
           id="circle956" />
        <circle
           cx="80"
           cy="48"
           r="16"
           id="circle958" />
        <path
           inkscape:connector-curvature="0"
           d="M 320,368 H 192 c -8.836,0 -16,-7.164 -16,-16 0,-8.836 7.164,-16 16,-16 h 128 c 8.836,0 16,7.164 16,16 0,8.836 -7.164,16 -16,16 z"
           id="path960" />
      </g>
      <path
         inkscape:connector-curvature="0"
         transform="translate(-432.9119,33.913157)"
         style="fill:#e6e6e6;fill-opacity:1;stroke-width:2.26264191"
         d="m 723.91992,72.259766 -11.49804,0.371093 a 10.374414,10.374414 0 0 0 -0.002,0 c -6.31426,0.204252 -12.27881,2.200507 -16.71289,6.296875 -4.43408,4.096369 -6.83851,10.321365 -6.44922,16.257813 a 10.374414,10.374414 0 0 0 0,0.002 l 3.19727,48.521483 c 0.28812,4.37372 1.31576,9.1499 4.80859,13.32813 0.62709,0.75014 1.40635,1.3648 2.16992,1.99023 -2.30217,0.70068 -4.51982,1.51068 -6.66797,2.41993 0.17013,-0.88202 0.37635,-1.76167 0.38868,-2.6543 0.0728,-5.27011 -2.04119,-9.64421 -4.72266,-13.40039 l -30.05078,-42.08985 a 10.374414,10.374414 0 0 0 -0.002,-0.002 c -4.0511,-5.672857 -10.70924,-8.460255 -16.36329,-8.699221 -7.27107,-0.307299 -13.44881,2.156221 -18.40039,6.484381 a 10.374414,10.374414 0 0 0 -0.002,0 l -9.09375,7.95117 c -4.92329,4.30258 -8.36399,9.78857 -9.21875,15.91992 -0.85476,6.13135 1.27977,12.61279 5.45117,17.07031 l 34.89258,37.29493 c 3.09967,3.3137 7.02957,6.4315 12.49024,7.47265 1.23258,0.23501 2.50049,0.26859 3.76953,0.21289 -1.84118,2.53497 -3.23691,4.89015 -4.6875,7.31446 -0.41719,-0.79779 -0.81313,-1.61199 -1.36328,-2.31641 -3.16857,-4.05709 -7.42883,-6.07124 -11.69727,-7.27148 h -0.002 l -47.00977,-13.22071 c -1.87235,-0.52654 -3.7921,-0.77834 -5.65625,-0.76172 -6.55953,0.0585 -11.91609,3.37255 -15.41992,7.14844 -3.50384,3.77589 -5.68501,8.10997 -6.55078,12.98828 l -1.99414,11.22656 a 10.374414,10.374414 0 0 0 0,0.002 c -1.09738,6.1837 -0.37678,12.4043 2.70508,17.56445 3.08185,5.16015 8.65372,8.7801 14.51757,9.61914 l 47.74024,6.83008 c 1.32323,0.18915 2.76699,0.1156 4.17578,0.13086 -0.81866,1.75877 -1.71592,3.42544 -2.42969,5.25586 -2.9963,-2.86558 -7.16907,-4.968 -11.06445,-5 a 10.374414,10.374414 0 0 0 -0.002,0 c -3.29597,-0.027 -6.13392,0.82224 -8.73243,1.9707 a 10.374414,10.374414 0 0 0 -0.002,0.002 l -35.26562,15.59766 c -6.31618,2.79349 -9.92656,9.13159 -10.71094,14.4043 -0.78449,5.27341 0.15414,9.98807 2.62695,14.35547 l 4.4375,7.83593 a 10.374414,10.374414 0 0 0 0.002,0.002 c 2.64543,4.66948 6.58969,8.50706 11.65235,10.30664 5.06265,1.79958 11.03644,1.11032 15.54101,-1.64063 a 10.374414,10.374414 0 0 0 0.002,-0.002 l 30.1582,-18.42578 c 0.34062,1.28709 0.54365,2.54682 0.99023,3.8457 4.05415,11.79149 14.64542,24.06839 31.89649,26.70703 3.59529,0.61006 7.16991,0.62868 10.69531,0.17578 a 10.374414,10.374414 0 0 0 1.98047,-0.17968 c 0.003,-6.8e-4 0.006,-0.003 0.01,-0.004 4.05608,-0.78812 7.82308,-2.33384 11.17578,-4.71289 9.35466,-6.18403 13.62849,-16.07686 14.79687,-25.02344 0.59062,-4.5225 0.43866,-8.93212 -0.71289,-13.20117 -0.11348,-0.42069 -0.29262,-0.8512 -0.42773,-1.27734 0.59307,-0.0406 1.17407,-0.0606 1.82031,-0.18946 3.53433,-0.70461 7.06961,-3.65629 8.77734,-6.67773 0.89792,0.31094 1.85991,0.59521 2.97071,0.80664 2.44214,0.46484 5.90772,0.53242 9.35156,-1.30469 3.1666,-1.68921 5.29471,-4.83869 6.36719,-7.74805 1.90998,1.59233 4.30146,3.57834 4.96875,4.19727 1.26015,1.32663 2.16079,2.81601 6.07812,4.45117 2.04609,0.85408 5.97636,1.4707 9.40039,-0.125 2.97961,-1.38857 4.42705,-3.50188 5.32617,-5.20703 0.78008,0.21426 1.57504,0.35857 2.39063,0.42578 0.79138,0.23527 1.75056,0.42729 3.12305,0.43555 2.42007,0.0146 6.62703,-1.40507 8.85937,-4.33984 a 10.374414,10.374414 0 0 0 0.01,-0.0117 c 2.18253,-2.87831 1.89264,-3.45557 2.26562,-4.90235 0.37298,-1.44677 0.62296,-3.08349 0.58008,-5.02539 -0.0236,-1.06652 -0.2157,-2.27129 -0.52539,-3.52148 3.51872,-0.45272 6.70359,-1.36904 10.00391,-2.25196 5.2742,-1.41097 9.91539,-2.96461 11.68164,-3.57812 a 10.374414,10.374414 0 0 0 0.002,0 c 3.35442,-1.16603 5.45703,-2.07617 5.45703,-2.07617 a 10.374414,10.374414 0 0 0 0.43359,-0.20117 c 0,0 2.61439,-1.46776 4.25,-3.36719 1.63562,-1.89943 3.13908,-4.7404 3.74024,-8.04492 a 10.374414,10.374414 0 0 0 0.16797,-1.80469 c 10e-4,-0.21136 10e-4,-0.38308 0.002,-0.52148 v -0.0137 l 0.004,-0.52929 a 10.374414,10.374414 0 0 0 -0.0176,-0.66993 c -0.53308,-9.2681 -5.57187,-12.5655 -9.07031,-16.29492 a 10.374414,10.374414 0 0 0 -0.19532,-0.20117 c -2.06521,-2.08551 -3.99021,-3.58104 -5.63476,-4.80664 -1.23184,-3.80147 -3.3985,-9.46712 -8.43555,-17.24805 -3.39411,-5.36894 -7.64084,-10.61855 -12.42383,-14.96679 -4.80088,-4.36451 -9.75651,-8.62343 -18.03515,-8.75977 -2.36627,-0.039 -5.04018,0.45554 -7.4668,1.6875 -3.30121,1.67539 -5.37324,4.18343 -6.67969,6.98633 -1.47574,-0.72723 -2.96508,-1.42428 -4.60156,-2.04492 0.90447,-0.68397 1.77201,-1.41791 2.49609,-2.27735 3.32892,-3.95116 4.42735,-8.557 4.72266,-13.00781 h -0.002 l 3.26562,-49.134768 c 0.51504,-7.752 -3.85615,-14.556596 -8.77539,-18.144531 -4.91867,-3.58752 -10.32449,-5.169787 -16.00976,-4.986328 z m -45.69531,97.572264 c -0.0528,0.0384 -0.0901,0.0807 -0.14258,0.11914 -0.0525,0.0409 -0.11372,0.0742 -0.16601,0.11524 z m -8.66602,7.87891 c -0.009,0.009 -0.0149,0.0185 -0.0234,0.0273 -0.0194,0.0208 -0.0451,0.0437 -0.0645,0.0644 z m 51.92774,47.51562 0.21484,0.0918 c -0.0386,-0.0171 -0.0688,-0.0163 -0.10742,-0.0332 -0.0431,-0.0183 -0.0639,-0.0404 -0.10742,-0.0586 z m -35.01563,27.55078 0.51563,0.14649 c -0.0744,-0.0232 -0.17482,-0.0297 -0.25,-0.0527 -0.0918,-0.0246 -0.17342,-0.0701 -0.26563,-0.0937 z m 8.79883,3.83985 0.36719,0.22461 c -0.0798,-0.0513 -0.17352,-0.0879 -0.25391,-0.13868 -0.0432,-0.0258 -0.0696,-0.0604 -0.11328,-0.0859 z m 19.07813,3.02343 -0.0879,0.1875 c 0.022,-0.0459 0.0234,-0.0737 0.0449,-0.11914 0.0107,-0.0229 0.0325,-0.0454 0.043,-0.0684 z m -38.55664,9.4004 c 0.61119,-0.0634 0.8906,0.006 0.77148,0.006 a 10.374414,10.374414 0 0 0 -0.96484,0.0488 c 0.0461,-0.006 0.15052,-0.0502 0.19336,-0.0547 z m -0.1543,7.79492 4.46289,0.34765 -2.13281,3.19727 c 0,0 -0.53737,-0.30943 -0.97852,-0.5625 -0.44216,-0.48226 -0.78688,-0.98509 -1.07617,-1.52734 a 10.374414,10.374414 0 0 0 -0.0469,0.004 c -0.007,-0.0162 -0.003,-0.0174 -0.01,-0.0332 h 0.0391 c -0.0232,-0.0442 -0.0627,-0.0871 -0.084,-0.13086 -0.50785,-1.26485 -0.17383,-1.29492 -0.17383,-1.29492 z m -3.89844,1.42578 h 4.07617 a 10.374414,10.374414 0 0 0 0.0156,0.0332 10.374414,10.374414 0 0 0 -3.26563,0.75781 c -0.15058,-0.0925 -0.5874,-0.57871 -0.82617,-0.79101 z m 1.99414,0.92578 c -0.21942,0.0612 -0.26929,0.44985 -0.76172,0.25391 z m 13.16602,9.5 -0.006,1.10547 h -0.0684 a 10.374414,10.374414 0 0 0 0.0742,-1.10547 z"
         id="path1071" />
      <g
         id="g4003"
         transform="matrix(2.2630573,0.01150955,-0.01150504,2.2621683,40.0539,-382.17324)">
        <path
           style="fill:#2e75a3"
           id="path3202"
           inkscape:connector-curvature="0"
           d="m 145.07,280.927 c 0,0 0.799,-0.399 1.039,-1.758 0,-0.08 0,-0.16 0,-0.24 v -0.24 c -0.08,-1.278 -1.359,-2.797 -2.797,-4.315 -1.678,-1.678 -3.116,-2.478 -3.116,-2.478 0,0 -0.719,-3.356 -3.756,-7.99 -2.956,-4.635 -8.071,-9.509 -10.867,-8.071 -2.797,1.438 -0.32,5.434 -0.16,6.633 0.24,1.278 1.438,3.356 1.039,3.356 -0.479,-0.08 -6.553,-11.507 -21.735,-8.31 -3.916,0.878 -7.272,2.557 -9.989,4.714 v 26.69 c 0.959,-0.959 1.358,-1.439 1.358,-1.439 0,0 1.039,4.795 2.957,6.953 1.918,2.157 4.235,3.436 4.954,1.837 0.719,-1.518 -1.518,-8.07 -1.518,-8.07 0,0 4.155,3.995 5.354,4.954 1.199,0.958 3.516,2.157 4.155,0 0.559,-2.157 -1.119,-5.433 -2.477,-5.992 -1.278,-0.56 -2.078,-0.56 -2.078,-0.56 0,0 -0.799,-1.039 -1.199,-1.359 -0.479,-0.32 -0.559,-0.319 -0.559,-0.319 0,0 0.719,-0.4 2.957,-0.32 2.317,0.08 4.155,0.16 4.155,0.16 0,0 2.078,3.036 3.356,3.995 1.199,1.039 4.315,3.516 5.434,4.554 1.039,1.039 1.678,1.519 2.078,0.639 0.32,-0.879 -0.24,-3.196 -1.678,-4.874 -1.518,-1.598 -3.116,-2.477 -3.676,-3.276 -0.479,-0.959 -0.799,-1.678 -0.799,-1.678 0,0 2.957,2.157 3.676,2.877 0.799,0.639 6.073,3.915 6.952,4.474 0.879,0.64 1.279,0.24 1.279,0.24 0,0 0.639,0.479 0.879,0.16 0.24,-0.32 0.879,-2.477 -0.799,-3.755 -1.758,-1.359 -2.797,-1.998 -2.637,-2.158 0.08,-0.159 1.838,0.4 2.077,-0.08 0.16,-0.399 -0.08,-1.038 -0.32,-1.198 -0.16,-0.241 0.48,-0.72 0.48,-0.72 0,0 0.639,0 3.276,0.24 2.637,0.24 9.269,-1.997 10.628,-2.477 1.358,-0.48 2.077,-0.799 2.077,-0.799 z m -50.342,34.36 c 5.514,-3.595 5.753,-12.705 2.717,-14.463 -0.879,-0.559 -1.758,-0.958 -2.717,-1.199 v 4.156 c 0.24,0.159 0.48,0.4 0.639,0.799 0.479,0.959 0.24,2.157 0.24,2.157 0,0 -0.08,-1.518 -0.639,-2.317 -0.08,-0.08 -0.16,-0.16 -0.24,-0.24 z m 0,-53.059 c -1.198,0.88 -2.237,1.918 -3.196,2.957 v 26.449 c 0.799,-0.479 1.518,-0.959 2.158,-1.598 0.4,-0.399 0.719,-0.799 1.039,-1.118 z m -3.196,54.417 c 1.199,-0.239 2.317,-0.719 3.196,-1.358 V 304.18 c -0.479,-0.639 -0.879,-1.039 -0.879,-1.039 0,0 0.4,0.16 0.879,0.64 v -4.156 c -1.039,-0.319 -2.158,-0.479 -3.196,-0.239 v 6.952 0 c 0.24,-0.16 0.639,-0.24 0.479,0.32 -0.08,0.32 -0.32,0.319 -0.48,0.32 v 0 4.075 c 0.16,0 0.399,0 0.559,-0.08 0,0 -0.16,0.16 -0.56,0.319 z m 0,-51.46 c -5.594,5.913 -8.071,13.025 -8.63,14.623 -0.879,2.477 -6.552,11.426 -7.032,16.7 -0.4,5.354 -0.479,18.379 11.667,20.137 1.438,0.24 2.797,0.239 3.995,-10e-4 v -5.353 c -1.119,0.319 -3.596,0.639 -6.393,-2.557 -3.756,-4.315 -1.918,-11.347 1.039,-13.745 1.918,-1.598 3.756,-2.477 5.354,-3.356 z m 0,34.2 v 6.952 c -0.24,0.16 -0.4,0.16 -0.559,-0.08 -0.16,0.48 0.16,0.719 0.559,0.719 v 4.075 c -2.557,0.239 -6.073,-1.998 -5.194,-5.514 1.039,-3.994 2.957,-5.752 5.194,-6.152 z" />
        <g
           id="g3217"
           transform="matrix(0.3825107,0,0,0.3825107,20.089286,125.61275)"
           inkscape:transform-center-y="-44.562164">
          <path
             style="fill:#eddf0e"
             id="rect3215"
             sodipodi:nodetypes="sssssssss"
             inkscape:connector-curvature="0"
             d="m 227.414,246.939 13.283,-0.497 c 7.13,-0.267 16.92,4.74 16.36,13.874 l -3.482,56.799 c -0.436,7.122 -3.506,10.89 -9.149,10.891 h -17.511 c -7.135,-10e-4 -10.136,-4.519 -10.641,-11.636 l -3.979,-56.054 c -0.503,-7.119 5,-12.998 15.119,-13.377 z" />
        </g>
        <g
           id="g3221"
           transform="matrix(0.31077472,-0.25449536,0.25449536,0.31077472,-108.32473,252.83556)"
           inkscape:transform-center-x="29.82031"
           inkscape:transform-center-y="-36.33424">
          <path
             style="fill:#fd6600"
             id="path3223"
             sodipodi:nodetypes="sssssssss"
             inkscape:connector-curvature="0"
             d="m 364.994,242.27 13.283,-0.498 c 7.129,-0.267 16.919,4.74 16.36,13.874 l -3.481,56.799 c -0.437,7.122 -3.506,10.89 -9.149,10.89 l -17.511,0.001 c -7.135,-0.001 -10.136,-4.519 -10.64,-11.636 l -3.979,-56.054 c -0.506,-7.117 4.998,-12.998 15.117,-13.376 z" />
        </g>
        <g
           id="g3225"
           transform="matrix(0.07828233,-0.37104593,0.37104593,0.07828233,-104.36,429.7208)"
           inkscape:transform-center-x="43.056986"
           inkscape:transform-center-y="-9.8080536">
          <path
             style="fill:#a4dc2d"
             id="path3227"
             sodipodi:nodetypes="sssssssss"
             inkscape:connector-curvature="0"
             d="m 485.005,307.459 13.284,-0.497 c 7.129,-0.267 16.92,4.739 16.36,13.874 l -3.481,56.8 c -0.436,7.121 -3.506,10.889 -9.149,10.89 h -17.512 c -7.135,0 -10.134,-4.519 -10.64,-11.636 l -3.978,-56.054 c -0.505,-7.117 4.999,-12.998 15.116,-13.377 z" />
        </g>
        <g
           id="g3229"
           transform="matrix(-0.13902763,-0.26521617,0.26521617,-0.13902763,13.934291,526.86862)"
           inkscape:transform-center-x="30.900947"
           inkscape:transform-center-y="16.468461">
          <path
             style="fill:#ef3e3e"
             id="path3231"
             sodipodi:nodetypes="sssssssss"
             inkscape:connector-curvature="0"
             d="m 584.441,445.677 13.283,-0.497 c 7.131,-0.266 16.921,4.741 16.36,13.874 l -3.48,56.8 c -0.438,7.121 -3.505,10.89 -9.149,10.89 h -17.511 c -7.134,0 -10.135,-4.518 -10.639,-11.635 l -3.98,-56.054 c -0.504,-7.118 4.999,-12.998 15.116,-13.378 z" />
        </g>
      </g>
    </g>
  </g>
</svg>
